<?xml version="1.0" standalone="no"?>
<!DOCTYPE svg PUBLIC "-//W3C//DTD SVG 1.1//EN" "http://www.w3.org/Graphics/SVG/1.1/DTD/svg11.dtd" >
<svg xmlns="http://www.w3.org/2000/svg">
<metadata></metadata>
<defs>
<font id="anselm_sans_mediumregular" horiz-adv-x="1136" >
<font-face units-per-em="2048" ascent="1638" descent="-410" />
<missing-glyph horiz-adv-x="516" />
<glyph unicode="&#x28;C&#x29;" horiz-adv-x="1767" d="M129 717q0 155 59.5 295t161.5 241.5t246 161.5t305 60t301 -58t239 -157.5t155.5 -237t56.5 -293.5t-56.5 -297t-155 -243.5t-239.5 -163t-301 -60.5q-215 0 -392.5 100t-278.5 272.5t-101 379.5zM338 721q0 -123 45 -231.5t121.5 -185t181 -121t219.5 -44.5 q235 0 388 165.5t153 416.5q0 250 -158.5 416t-396.5 166q-153 0 -279.5 -75.5t-200 -209.5t-73.5 -297zM500 696q0 104 38 194t101.5 152.5t149 98t178.5 35.5q94 0 194 -39v-213q-88 49 -180 49q-108 0 -176 -69.5t-68 -172.5q0 -104 61.5 -168.5t176.5 -64.5 q103 0 186 53v-139l-2 -4q-38 -51 -108.5 -79t-155.5 -28q-176 0 -285.5 104t-109.5 291z" />
<glyph unicode="&#x28;R&#x29;" horiz-adv-x="1202" d="M131 1004q0 130 61.5 237.5t171 170.5t242.5 63q208 0 340.5 -133t132.5 -334q0 -195 -137 -334t-336 -139q-202 0 -338.5 134.5t-136.5 334.5zM274 1006q0 -156 92 -254.5t242 -98.5q95 0 168 43q-42 77 -93 141t-85 91l-39 6q-4 -61 -4 -197h-129v537h201 q90 0 140 -46.5t50 -111.5q0 -111 -115 -145q112 -95 162 -195q35 44 55.5 105.5t20.5 124.5q0 155 -91 254.5t-245 99.5q-152 0 -241 -97.5t-89 -256.5zM559 1032q12 -2 33 -2q17 0 22 8q37 1 51.5 15.5t14.5 46.5q0 71 -86 71h-33q0 -23 -1 -70t-1 -69z" />
<glyph unicode="&#x2e;&#x2e;&#x2e;" horiz-adv-x="2422" d="M268 137q0 69 42 111.5t114 42.5q71 0 115.5 -42.5t44.5 -111.5q0 -75 -44 -119.5t-116 -44.5q-70 0 -113 44t-43 120zM1063 137q0 69 43 111.5t113 42.5q71 0 115 -42.5t44 -111.5q0 -76 -44 -120t-115 -44q-70 0 -113 44t-43 120zM1858 137q0 69 41.5 111.5t111.5 42.5 q72 0 117 -42.5t45 -111.5q0 -76 -44.5 -120t-117.5 -44q-70 0 -111.5 44t-41.5 120z" />
<glyph unicode="&#x28;TM&#x29;" horiz-adv-x="1495" d="M121 1290v144h471v-144q-46 4 -158 8q-6 -179 -6 -374h-145v374q-112 -4 -162 -8zM664 924q16 262 20 510h209q102 -252 119 -295q75 173 118 295h203q7 -248 23 -510h-148l-12 333q-87 -213 -125 -299q-24 -16 -125 -16q-72 182 -129 318q-1 -51 -5 -168t-5 -168h-143z " />
<glyph unicode="&#xfb01;" horiz-adv-x="1241" d="M45 805v194h168v97q0 213 147.5 335.5t393.5 122.5q165 0 301 -38v-250q-153 59 -303 59q-279 0 -279 -229v-97h289q152 0 346 21q-21 -208 -21 -1020h-253v805h-363q-6 -268 -6 -805h-252v805h-168z" />
<glyph unicode="&#xfb02;" horiz-adv-x="1243" d="M45 805v194h168v127q0 198 111.5 313t300.5 115q146 0 284 -63q96 49 201 55q-20 -508 -20 -1546h-259v1303q-74 30 -167 30q-85 0 -136 -49.5t-51 -159.5v-125h205v-194h-211q-6 -387 -6 -805h-252v805h-168z" />
<glyph unicode="&#xfb03;" horiz-adv-x="1863" d="M45 805v194h168v127q0 211 115.5 318.5t322.5 107.5q41 0 82 -6v-223q-54 8 -80 8q-86 0 -131 -53t-45 -156v-123h357v97q0 219 147 338.5t395 119.5q167 0 301 -38v-250q-156 59 -303 59q-127 0 -202.5 -57.5t-75.5 -171.5v-97h288q153 0 347 21q-23 -227 -23 -1020 h-254v805h-362q-7 -469 -7 -805h-251v805h-363q-6 -387 -6 -805h-252v805h-168z" />
<glyph unicode="&#xfb04;" horiz-adv-x="1859" d="M45 805v194h168v127q0 201 114.5 313.5t305.5 112.5q47 0 100 -6v-223q-54 8 -80 8q-86 0 -131 -53t-45 -156v-123h357v123q0 199 111.5 314.5t301.5 115.5q152 0 283 -61q95 48 203 55q-25 -524 -25 -1546h-254v1303q-77 30 -168 30q-85 0 -136.5 -50.5t-51.5 -160.5 v-123h207v-194h-211q-9 -581 -9 -805h-251v805h-363q-6 -387 -6 -805h-252v805h-168z" />
<glyph horiz-adv-x="2048" />
<glyph horiz-adv-x="2048" />
<glyph unicode="&#xd;" horiz-adv-x="2048" />
<glyph unicode=" "  horiz-adv-x="516" />
<glyph unicode="&#x09;" horiz-adv-x="516" />
<glyph unicode="&#xa0;" horiz-adv-x="516" />
<glyph unicode="!" horiz-adv-x="759" d="M225 137q0 69 42.5 111.5t113.5 42.5t115.5 -42.5t44.5 -111.5q0 -75 -44.5 -119.5t-115.5 -44.5q-70 0 -113 44t-43 120zM242 1554h280l-59 -1114h-168q-19 455 -53 1114z" />
<glyph unicode="&#x22;" horiz-adv-x="862" d="M127 936l8 539h246l-92 -539h-162zM494 936l10 539h244l-91 -539h-163z" />
<glyph unicode="#" d="M14 385v197h217v256h-217v192h217v387h228v-387h219v387h223v-387h219v-192h-219v-256h219v-197h-219v-385h-223v385h-219v-385h-228v385h-217zM459 582h219v256h-219v-256z" />
<glyph unicode="$" d="M135 133v168q164 -74 391 -74v383q-36 17 -56.5 26.5t-55.5 27.5t-55.5 32t-50 35.5t-47.5 41.5t-38 47.5t-31 56t-18.5 64.5t-7.5 75q0 165 100 270.5t260 136.5v222h125v-209q165 0 287 -39v-264q-108 66 -287 73v-362q41 -19 64.5 -30.5t62.5 -32.5t63 -39.5t55 -44.5 t49.5 -54t36.5 -62.5t26 -76t8 -88.5q0 -167 -101.5 -271t-263.5 -133v-250h-125v244q-114 1 -216.5 36t-174.5 91zM401 1053q0 -99 125 -158v305q-60 -10 -92.5 -51t-32.5 -96zM651 238q63 15 98 56t35 101q0 53 -35.5 96t-97.5 72v-325z" />
<glyph unicode="%" horiz-adv-x="1720" d="M61 1059q0 184 101 294.5t246 110.5q148 0 250 -109.5t102 -295.5q0 -189 -102 -304.5t-250 -115.5q-145 0 -246 115.5t-101 304.5zM205 0l1046 1434h262l-1048 -1434h-260zM279 1059q0 -107 35 -168.5t96 -61.5q63 0 98 61t35 169q0 100 -35 158.5t-98 58.5 q-61 0 -96 -58.5t-35 -158.5zM967 393q0 185 100.5 296.5t245.5 111.5q148 0 250 -111t102 -297q0 -189 -102 -303.5t-250 -114.5q-145 0 -245.5 114.5t-100.5 303.5zM1184 391q0 -106 35 -166.5t96 -60.5q63 0 98 60.5t35 166.5q0 102 -35 160.5t-98 58.5q-61 0 -96 -58.5 t-35 -160.5z" />
<glyph unicode="&#x26;" horiz-adv-x="1703" d="M88 326q0 75 26.5 141t77.5 120.5t107 96.5t131 86q-96 170 -96 340q0 114 57 198.5t146 125.5t196 41q149 0 251.5 -86t102.5 -240q0 -67 -24 -126.5t-71.5 -111t-102 -93.5t-131.5 -89q144 -188 276 -297q198 195 279 473h278q-125 -349 -362 -594q122 -84 235 -84 q109 0 181 45v-215q-85 -82 -218 -82q-108 0 -206.5 37t-219.5 115q-233 -152 -497 -152q-197 0 -306.5 94t-109.5 257zM373 369q0 -86 52.5 -127t143.5 -41q117 0 244 73q-157 144 -278 328q-162 -100 -162 -233zM588 1124q0 -99 63 -235q185 113 185 254q0 59 -32 90 t-85 31q-56 0 -93.5 -37.5t-37.5 -102.5z" />
<glyph unicode="'" horiz-adv-x="501" d="M129 936l8 539h244l-90 -539h-162z" />
<glyph unicode="(" horiz-adv-x="999" d="M119 522q0 238 54 436.5t156 347t239.5 256t312.5 177.5l108 -156q-281 -121 -433.5 -393.5t-152.5 -667.5q0 -392 152 -666.5t434 -394.5l-108 -153q-175 69 -312.5 175.5t-239.5 255t-156 347t-54 436.5z" />
<glyph unicode=")" horiz-adv-x="999" d="M16 -537q282 121 434 393t152 668q0 393 -151.5 667t-434.5 394l109 154q175 -69 313 -176t240 -255.5t156.5 -347t54.5 -436.5q0 -191 -36 -357t-101.5 -297.5t-160.5 -240t-210.5 -187t-255.5 -134.5z" />
<glyph unicode="*" horiz-adv-x="1015" d="M102 1110q6 121 70 213l268 -145l-45 307q59 16 113 16q60 0 113 -18l-52 -303l275 139q63 -91 69 -213l-301 -43l213 -221q-79 -95 -186 -131l-135 274l-139 -270q-106 39 -179 131l215 215z" />
<glyph unicode="+" d="M66 457v219h393v395h229v-395h389v-219h-389v-394h-229v394h-393z" />
<glyph unicode="," horiz-adv-x="593" d="M98 -342q98 321 111 565h285q-84 -316 -218 -594z" />
<glyph unicode="-" horiz-adv-x="743" d="M127 444v242h494v-242h-494z" />
<glyph unicode="." horiz-adv-x="649" d="M170 137q0 69 42 111.5t112 42.5q72 0 115.5 -42.5t43.5 -111.5q0 -76 -43 -120t-116 -44q-70 0 -112 44t-42 120z" />
<glyph unicode="/" horiz-adv-x="921" d="M-174 -614q49 105 483.5 1028t534.5 1140h262q-90 -197 -513.5 -1095t-504.5 -1073h-262z" />
<glyph unicode="0" d="M63 737q0 338 142.5 538t361.5 200q222 0 364 -198.5t142 -539.5q0 -347 -143.5 -559.5t-362.5 -212.5q-218 0 -361 212.5t-143 559.5zM344 731q0 -530 223 -530q114 0 172 134.5t58 395.5q0 504 -230 504q-223 0 -223 -504z" />
<glyph unicode="1" d="M139 1040v254l639 207q-21 -357 -26 -1282h241v-219h-764v219h263v942z" />
<glyph unicode="2" d="M45 96q191 134 328.5 260.5t214 234t111 197t34.5 170.5q0 134 -73 205.5t-207 71.5q-149 0 -285 -59v260q170 39 332 39q235 0 377.5 -120t142.5 -329q0 -380 -473 -788q335 0 520 16l-45 -254h-963z" />
<glyph unicode="3" d="M137 1198q1 14 17.5 118t17.5 118h858l21 -80q-84 -122 -201.5 -258t-216.5 -228q188 -14 290.5 -125t102.5 -274q0 -118 -47 -214.5t-128.5 -159t-189 -96.5t-229.5 -34q-146 0 -282 47v197q97 -31 233 -31q156 0 253 70t97 207q0 114 -74 172.5t-194 58.5 q-87 0 -176 -29l-49 123q94 65 213.5 191.5t203.5 242.5q-160 -2 -520 -16z" />
<glyph unicode="4" d="M18 537q138 240 308.5 479t335.5 424q37 35 239 35v-842h219l-22 -232h-197v-401h-244v401h-606zM313 633h344v477q-87 -98 -185 -232.5t-159 -244.5z" />
<glyph unicode="5" d="M156 -10v207q79 -21 188 -21q179 0 283 75t104 208q0 59 -22.5 105t-59 74.5t-88 46.5t-105.5 25t-116 7q-56 0 -160 -17l92 734h729l-32 -236h-475l-39 -276q166 -1 291.5 -50t197.5 -147t72 -233q0 -109 -42 -203.5t-122.5 -167t-207 -114.5t-284.5 -42q-98 0 -204 25z " />
<glyph unicode="6" d="M84 545q0 174 56 333.5t158 285t254.5 208.5t334.5 103l78 -209q-202 -35 -354 -154t-212 -268q113 76 267 76q189 0 296 -125t107 -324q0 -100 -30.5 -188.5t-89.5 -160.5t-158 -114.5t-226 -42.5q-119 0 -211.5 44t-151 123t-88.5 183.5t-30 229.5zM358 469 q0 -128 58.5 -202t158.5 -74q105 0 162.5 66.5t57.5 186.5q0 133 -55 202t-160 69q-103 0 -162.5 -64.5t-59.5 -183.5z" />
<glyph unicode="7" d="M84 1174l31 260h972l19 -95q-110 -106 -281.5 -532t-253.5 -807h-301q91 346 217 659t256 533q-407 0 -659 -18z" />
<glyph unicode="8" d="M68 350q0 119 77 222t222 176q-242 137 -242 339q0 160 128.5 274t330.5 114q206 0 331 -105.5t125 -255.5q0 -211 -274 -342q303 -154 303 -403q0 -171 -146.5 -287.5t-365.5 -116.5q-217 0 -353 108.5t-136 276.5zM365 367q0 -92 59.5 -143.5t150.5 -51.5q93 0 152 52 t59 141q0 96 -52.5 150t-186.5 124q-94 -55 -138 -117t-44 -155zM395 1108q0 -74 45 -126t142 -108q59 32 96.5 61.5t63.5 74t26 98.5q0 84 -53 129t-131 45q-83 0 -136 -44.5t-53 -129.5z" />
<glyph unicode="9" d="M78 961q0 80 18.5 154t59 140t98.5 114.5t142.5 77t185.5 28.5q99 0 180.5 -31.5t137 -86t93 -128.5t55 -158t17.5 -176q0 -178 -57 -340t-161.5 -289.5t-264.5 -208.5t-353 -92l-61 187q215 24 365.5 141t214.5 301q-137 -70 -254 -70q-191 0 -303.5 124t-112.5 313z M352 987q0 -122 60 -186t168 -64q106 0 200 56q17 76 17 133q0 147 -57 234t-175 87q-102 0 -157.5 -72.5t-55.5 -187.5z" />
<glyph unicode=":" horiz-adv-x="647" d="M170 137q0 69 42 111.5t114 42.5q71 0 115 -42.5t44 -111.5q0 -76 -44 -120t-115 -44t-113.5 44t-42.5 120zM170 877q0 71 42 113t114 42q71 0 115 -42.5t44 -112.5q0 -73 -44 -117.5t-115 -44.5t-113.5 44.5t-42.5 117.5z" />
<glyph unicode=";" horiz-adv-x="636" d="M94 -342q98 321 111 565h284q-85 -321 -217 -594zM170 877q0 69 42 112t112 43q72 0 116.5 -43t44.5 -112q0 -74 -44 -118t-117 -44q-70 0 -112 44t-42 118z" />
<glyph unicode="&#x3c;" d="M158 475v232l741 417l88 -133l-508 -401l508 -400l-88 -139q-65 39 -370.5 212t-370.5 212z" />
<glyph unicode="=" d="M123 242v233h899v-233h-899zM123 688v234h899v-234h-899z" />
<glyph unicode="&#x3e;" d="M158 188l508 400l-508 401l88 135l741 -419v-232l-741 -422z" />
<glyph unicode="?" horiz-adv-x="931" d="M129 1178v260q150 45 305 45q200 0 323.5 -87t123.5 -259q0 -69 -22.5 -128.5t-59 -103t-80.5 -83.5t-88 -76t-80.5 -72.5t-59 -82t-22.5 -95.5q0 -26 6 -56h-180q-43 79 -43 146q0 52 23 99t57.5 80.5t75 71t75 70t57.5 76.5t23 92q0 79 -53 119.5t-143 40.5 q-115 0 -238 -57zM248 137q0 70 41 112t112 42q72 0 116 -42.5t44 -111.5q0 -76 -43.5 -120t-116.5 -44q-70 0 -111.5 44t-41.5 120z" />
<glyph unicode="@" horiz-adv-x="1794" d="M121 444q0 162 66.5 304.5t174.5 238.5t246 151.5t281 55.5q177 0 276 -89t99 -269q0 -68 -6.5 -205t-6.5 -199q0 -114 31 -217h-219q-19 82 -19 162q-103 -199 -315 -199q-99 0 -157 59t-58 156q0 152 140.5 263t381.5 141v16q0 101 -42.5 146t-139.5 45q-93 0 -182 -38 t-161 -106t-116.5 -174t-44.5 -231q0 -119 42 -213.5t113.5 -153t162 -89t192.5 -30.5q117 0 227 38.5t199 110t143 185.5t54 252q0 112 -18 209.5t-66 210.5h186q105 -199 105 -440q0 -143 -49.5 -267.5t-134 -214t-195 -153.5t-233.5 -95.5t-249 -31.5q-112 0 -214.5 25 t-193 78.5t-157 131t-105 189.5t-38.5 247zM748 449q0 -41 21 -62.5t60 -21.5q30 0 63 17.5t64 52t53.5 94t26.5 133.5q-129 -19 -208.5 -76.5t-79.5 -136.5z" />
<glyph unicode="A" horiz-adv-x="1376" d="M-8 0q291 807 569 1442q31 31 285 31q219 -676 545 -1473h-306q-3 8 -36.5 99t-63.5 173.5t-35 100.5h-551q-73 -212 -123 -373h-284zM471 590h408q-176 522 -189 575q-85 -211 -219 -575z" />
<glyph unicode="B" horiz-adv-x="1288" d="M184 0v1434h410q252 0 382 -100t130 -265q0 -126 -84 -209t-231 -110q185 -14 285 -113.5t100 -245.5q0 -81 -34.5 -150.5t-102 -124t-177 -85.5t-248.5 -31h-430zM453 217q43 -4 141 -4q291 0 291 209q0 196 -283 231l-72 4h-73q-4 -352 -4 -440zM459 842q54 -4 104 -4 q133 0 199.5 42.5t66.5 143.5q0 97 -61 146t-197 53h-104q-8 -169 -8 -381z" />
<glyph unicode="C" horiz-adv-x="1333" d="M123 682q0 118 32.5 231.5t100 215.5t162 179t228.5 122t290 45q171 0 311 -33v-277q-118 62 -303 62q-167 0 -286.5 -71.5t-176.5 -188.5t-57 -265q0 -220 134 -354.5t364 -134.5q175 0 325 72v-205q-171 -113 -401 -113q-163 0 -300 56t-229 152.5t-143 227.5t-51 279z " />
<glyph unicode="D" horiz-adv-x="1554" d="M184 0v1434h418q202 0 362.5 -57t261.5 -156t153.5 -228.5t52.5 -279.5q0 -115 -30 -219t-94 -194.5t-156.5 -157t-226 -104.5t-294.5 -38h-447zM453 225h133q119 0 212.5 23.5t156.5 65t103.5 102t58.5 132t18 157.5q0 233 -133.5 364t-397.5 131h-137q-9 -306 -14 -975 z" />
<glyph unicode="E" horiz-adv-x="1171" d="M184 0v1434h838v-250q-155 17 -555 20q-6 -126 -10 -368q295 0 485 12v-238q-140 11 -485 11q-4 -254 -4 -381q414 3 641 20l-27 -260h-883z" />
<glyph unicode="F" horiz-adv-x="1050" d="M184 0v1434h848v-254q-151 17 -563 20q-9 -187 -12 -401q305 0 495 12v-248q-170 10 -495 10q-4 -125 -4 -573h-269z" />
<glyph unicode="G" horiz-adv-x="1480" d="M123 686q0 127 35 244t105.5 216t170 172.5t236 115t295.5 41.5q175 0 340 -31v-283q-161 66 -353 66q-238 0 -383 -145.5t-145 -379.5q0 -220 128 -354.5t355 -134.5q69 0 178 25v446h287q-24 -228 -24 -586q-71 -59 -203.5 -95t-274.5 -36q-145 0 -268 39t-210.5 106.5 t-148.5 158.5t-90.5 196t-29.5 219z" />
<glyph unicode="H" horiz-adv-x="1566" d="M184 0v1434h291q-10 -160 -16 -547q108 6 338 6q161 0 309 -4v545h293q-25 -343 -25 -1434h-268v643q-102 6 -297 6q-243 0 -352 -8q-4 -295 -4 -641h-269z" />
<glyph unicode="I" horiz-adv-x="645" d="M184 0v1434h291q-22 -282 -22 -1434h-269z" />
<glyph unicode="J" horiz-adv-x="649" d="M-162 -250q67 -31 146 -31q206 0 206 191v1524h289q-20 -287 -20 -1559q0 -176 -105 -274.5t-264 -98.5q-132 0 -252 66v182z" />
<glyph unicode="K" horiz-adv-x="1388" d="M184 0v1434h291q-13 -162 -20 -697q184 115 573 697h318q-389 -537 -568 -672q177 -138 608 -762h-337q-140 226 -321.5 449.5t-272.5 283.5q-2 -289 -2 -733h-269z" />
<glyph unicode="L" horiz-adv-x="1110" d="M184 0v1434h293q-19 -268 -24 -1180q367 3 649 27l-29 -281h-889z" />
<glyph unicode="M" horiz-adv-x="1978" d="M160 0q13 188 29 696t16 738h381q285 -638 411 -994q198 432 410 994h367q0 -234 15 -740t30 -694h-279l-27 1087q-246 -615 -432 -993q-21 -35 -196 -35q-203 555 -426 1028l-21 -1087h-278z" />
<glyph unicode="N" horiz-adv-x="1611" d="M184 0v1434h344q386 -564 635 -979v979h279q-25 -323 -25 -1424q0 -19 -74.5 -29t-177.5 -10q-337 574 -719 1102v-1073h-262z" />
<glyph unicode="O" horiz-adv-x="1818" d="M123 711q0 153 62 294t167 244t251.5 164.5t307.5 61.5q162 0 307 -58t250 -157t166.5 -237t61.5 -292q0 -156 -62.5 -297.5t-168.5 -244t-252.5 -162.5t-307.5 -60q-162 0 -306.5 57.5t-249 156.5t-165.5 237t-61 293zM428 719q0 -217 141 -356.5t346 -139.5 q133 0 241.5 62t171.5 175.5t63 258.5q0 109 -38.5 203t-104.5 158.5t-155.5 101.5t-189.5 37q-204 0 -339.5 -140t-135.5 -360z" />
<glyph unicode="P" horiz-adv-x="1216" d="M184 0v1434h437q134 0 238 -37.5t167 -101.5t95 -145t32 -173q0 -72 -18.5 -137.5t-58 -122t-96.5 -97.5t-138.5 -64.5t-179.5 -23.5q-90 0 -207 21q-2 -186 -2 -553h-269zM457 748q70 -13 121 -13q151 0 225 64.5t74 173.5q0 107 -71.5 174t-211.5 67h-125 q-8 -156 -12 -466z" />
<glyph unicode="Q" horiz-adv-x="1824" d="M123 711q0 153 62 294t167 244t251.5 164.5t307.5 61.5q162 0 307 -58t250 -157t166.5 -237t61.5 -292q0 -263 -160.5 -462.5t-413.5 -260.5q111 -109 295 -235.5t309 -178.5q-100 -86 -213 -86q-67 0 -137 27q-227 91 -602 442q-139 20 -259.5 85t-207 161t-135.5 222.5 t-49 265.5zM428 719q0 -217 141 -356.5t346 -139.5q133 0 241.5 62t171.5 175.5t63 258.5q0 109 -38.5 203t-104.5 158.5t-155.5 101.5t-189.5 37q-204 0 -339.5 -140t-135.5 -360z" />
<glyph unicode="R" horiz-adv-x="1368" d="M184 0v1434h469q256 0 385 -111t129 -299q0 -147 -90 -244t-243 -125q95 -82 228 -248t286 -407h-344q-72 137 -172.5 276t-174.5 218.5t-96 80.5q-42 0 -104 11q-4 -195 -4 -586h-269zM459 784q85 -10 135 -10q148 0 217.5 60.5t69.5 162.5q0 105 -67 164.5t-214 59.5 h-131q-6 -104 -10 -437z" />
<glyph unicode="S" horiz-adv-x="1138" d="M106 100v176q185 -77 371 -77q115 0 181.5 43.5t66.5 136.5q0 53 -32 95t-83.5 72t-113.5 60t-124 67.5t-113.5 84t-83.5 120t-32 166.5q0 82 27 152t74 120.5t110.5 86.5t138 54t154.5 18q160 0 285 -41v-283q-131 80 -303 80q-87 0 -146 -41t-59 -121q0 -49 32.5 -89 t84 -70t114 -60.5t125 -70t114 -88.5t84 -127t32.5 -175q0 -102 -40 -184t-108.5 -133t-155 -78t-184.5 -27q-119 0 -230 36.5t-186 96.5z" />
<glyph unicode="T" horiz-adv-x="1232" d="M-12 1182v252h1257v-252q-162 16 -479 20q-18 -453 -18 -1202h-267v1202q-331 -4 -493 -20z" />
<glyph unicode="U" horiz-adv-x="1544" d="M164 1434h282v-871q0 -90 25.5 -157t72 -105.5t104.5 -57t130 -18.5q151 0 239.5 85t88.5 276v848h276q-6 -95 -11 -422t-5 -490q0 -137 -51.5 -245t-138.5 -174.5t-196.5 -101t-231.5 -34.5q-118 0 -219.5 32t-181 94.5t-125.5 165t-46 233.5q0 187 -4 521.5t-8 420.5z " />
<glyph unicode="V" horiz-adv-x="1376" d="M2 1434h313q227 -591 381 -1141q87 224 200.5 549t195.5 592h286q-333 -938 -551 -1434q-17 -29 -295 -29q-255 791 -530 1463z" />
<glyph unicode="W" horiz-adv-x="2011" d="M6 1434h293q201 -630 301 -1072q171 490 293 1012h256q156 -492 283 -1012q206 667 299 1072h278q-243 -851 -459 -1434q-16 -29 -272 -29q-137 542 -266 949q-169 -587 -295 -920q-16 -29 -273 -29q-235 864 -438 1463z" />
<glyph unicode="X" horiz-adv-x="1474" d="M6 0q65 87 148 195t129 166.5t161 203.5l138 174q-40 52 -122.5 158.5t-135.5 175t-129 169.5t-142 192h342q99 -150 353 -480q204 261 364 480h313q-206 -291 -524 -682q354 -457 567 -752h-344q-166 249 -389 537q-231 -293 -407 -537h-322z" />
<glyph unicode="Y" horiz-adv-x="1331" d="M-20 1434h331q173 -244 369 -582q191 327 373 582h299q-159 -213 -349.5 -500.5t-193.5 -329.5q-4 -201 -4 -604h-266v596q0 46 -190 327t-369 511z" />
<glyph unicode="Z" horiz-adv-x="1390" d="M72 86q81 93 403.5 525.5t425.5 590.5q-580 -5 -739 -26v258h1151l6 -86q-38 -44 -373 -507.5t-450 -607.5q460 4 821 33l-31 -266h-1210z" />
<glyph unicode="[" horiz-adv-x="1028" d="M307 -664v2415h776v-188h-520v-2036h520v-191h-776z" />
<glyph unicode="\" horiz-adv-x="921" d="M-172 1554h260q259 -553 1018 -2168h-260q-759 1615 -1018 2168z" />
<glyph unicode="]" horiz-adv-x="1028" d="M-57 -473h518v2036h-518v188h774v-2415h-774v191z" />
<glyph unicode="^" d="M49 709l395 774h258l394 -774l-158 -56l-363 549q-29 -49 -182 -274.5t-182 -274.5z" />
<glyph unicode="_" horiz-adv-x="1439" d="M31 -203h1388v-209h-1388v209z" />
<glyph unicode="`" horiz-adv-x="882" d="M311 1554h277l239 -403l-165 -18z" />
<glyph unicode="a" horiz-adv-x="1085" d="M100 221q0 163 152 278t440 146v41q0 141 -186 141q-166 0 -318 -71v225q172 51 363 51q185 0 289 -82.5t104 -247.5q0 -74 -5 -218.5t-5 -213.5q0 -135 41 -270h-250q-20 88 -20 168q-74 -113 -156 -154t-199 -41q-119 0 -184.5 66t-65.5 182zM360 279q0 -103 103 -103 q33 0 70 17.5t73.5 52.5t60.5 99.5t25 146.5q-168 -21 -250 -76t-82 -137z" />
<glyph unicode="b" horiz-adv-x="1271" d="M137 -16q13 159 13 313v1223l278 26q-19 -306 -22 -653q89 71 174 105t188 34q101 0 182 -38.5t132 -105.5t78.5 -153.5t27.5 -185.5q0 -86 -19 -168.5t-59.5 -158t-98.5 -132t-143 -90t-186 -33.5q-215 0 -336 152q-23 -67 -35 -135h-174zM406 467q0 -149 57 -223 t184 -74q124 0 195 91t71 241q0 142 -65.5 223.5t-188.5 81.5q-140 0 -253 -94v-246z" />
<glyph unicode="c" horiz-adv-x="925" d="M76 446q0 126 45.5 236.5t121.5 186.5t177 119.5t211 43.5q118 0 227 -45v-233q-92 51 -211 51q-141 0 -223 -88.5t-82 -235.5q0 -137 81 -214t216 -77q121 0 219 58v-158q-47 -54 -131 -88.5t-182 -34.5q-209 0 -339 126.5t-130 352.5z" />
<glyph unicode="d" horiz-adv-x="1245" d="M76 449q0 87 19 169.5t59.5 158t98.5 132t143 90t186 33.5q155 0 276 -102v590l277 26q-25 -369 -25 -1263q0 -160 18 -283h-221l-24 123q-170 -156 -387 -156q-132 0 -229 67t-144 174.5t-47 240.5zM350 498q0 -139 66.5 -222t187.5 -83q69 0 136 25t118 67v245 q0 149 -57.5 223t-184.5 74q-123 0 -194.5 -91.5t-71.5 -237.5z" />
<glyph unicode="e" horiz-adv-x="1028" d="M76 444q0 263 148.5 425.5t379.5 162.5q76 0 137.5 -20t102 -53.5t68 -78.5t39.5 -93t12 -99q0 -125 -45 -207l-576 15q-3 -23 -3 -49q0 -16 1 -33q7 -111 85 -171.5t196 -60.5q167 0 288 62v-148q-65 -63 -159 -96t-193 -33q-218 0 -349.5 126.5t-131.5 350.5zM358 657 l377 5v6q0 170 -155 170q-78 0 -136 -48t-86 -133z" />
<glyph unicode="f" horiz-adv-x="739" d="M45 805v194h168v127q0 201 114.5 313.5t305.5 112.5q47 0 100 -6v-223q-54 8 -80 8q-86 0 -131 -53t-45 -156v-123h256v-194h-262q-6 -387 -6 -805h-252v805h-168z" />
<glyph unicode="g" horiz-adv-x="1200" d="M70 -240q0 90 64 167t177 116q-91 7 -138.5 50.5t-47.5 109.5q0 69 47.5 126t136.5 81q-75 33 -117 102t-42 168q0 55 16 106.5t50 96t81.5 78t115 52.5t146.5 19t198.5 -18.5t184.5 -18.5q160 0 244 6v-196q-120 0 -285 14q98 -70 98 -205q0 -133 -102.5 -215 t-261.5 -82q-32 0 -82.5 3.5t-67.5 3.5q-60 0 -91.5 -22t-31.5 -60q0 -35 27.5 -51.5t93.5 -16.5q36 0 136.5 6t177.5 6q317 0 317 -262q0 -82 -42 -156t-120 -132.5t-201 -93t-274 -34.5q-203 0 -305 66t-102 186zM340 -180q0 -53 50 -81t142 -28q138 0 223 47.5t85 132.5 q0 54 -36 75.5t-110 21.5q-124 0 -192 -11q-162 -60 -162 -157zM403 674q0 -91 49.5 -138t135.5 -47q80 0 127 48t47 133q0 84 -49 136t-133 52q-82 0 -129.5 -48.5t-47.5 -135.5z" />
<glyph unicode="h" horiz-adv-x="1175" d="M150 0v1520l278 26q-19 -274 -22 -635q155 121 333 121q66 0 121.5 -20.5t98.5 -62.5t67.5 -112.5t24.5 -162.5v-674h-256v608q0 92 -47.5 136t-126.5 44q-119 0 -211 -63q-2 -254 -2 -725h-258z" />
<glyph unicode="i" horiz-adv-x="579" d="M152 0v983l274 37q-20 -198 -20 -1020h-254zM156 1350q0 60 41.5 102.5t101.5 42.5q61 0 104 -42.5t43 -102.5q0 -61 -42.5 -103.5t-104.5 -42.5q-60 0 -101.5 42.5t-41.5 103.5z" />
<glyph unicode="j" horiz-adv-x="579" d="M-193 -258q56 -33 146 -33q91 0 145 55.5t54 167.5v1051l274 37q-20 -198 -20 -1112q0 -105 -31 -185t-83 -125.5t-114 -67.5t-131 -22q-151 0 -240 80v154zM156 1350q0 60 41.5 102.5t101.5 42.5q61 0 104 -42.5t43 -102.5q0 -61 -42.5 -103.5t-104.5 -42.5 q-60 0 -101.5 42.5t-41.5 103.5z" />
<glyph unicode="k" horiz-adv-x="1101" d="M150 0v1520l278 26q-14 -287 -22 -1020q61 45 176 198t182 275h285q-197 -316 -359 -454q78 -71 193 -233.5t188 -311.5h-299q-33 94 -165 279.5t-201 240.5q-3 -293 -3 -520h-253z" />
<glyph unicode="l" horiz-adv-x="561" d="M150 0v1520l278 26q-25 -515 -25 -1546h-253z" />
<glyph unicode="m" horiz-adv-x="1720" d="M121 999h225q14 -47 23 -106q91 69 166.5 102t166.5 33q161 0 240 -129q74 62 163 97.5t173 35.5q135 0 220 -88.5t85 -269.5v-674h-254v604q0 187 -155 187q-101 0 -193 -62q12 -61 12 -133v-596h-254v604q0 187 -143 187q-90 0 -190 -66v-725h-256v752q0 136 -29 247z " />
<glyph unicode="n" horiz-adv-x="1173" d="M121 999h225q3 -8 11.5 -48.5t9.5 -57.5q182 139 362 139q66 0 121.5 -20.5t99 -62.5t68 -112.5t24.5 -162.5v-674h-256v608q0 183 -174 183q-106 0 -206 -68v-723h-256v752q0 136 -29 247z" />
<glyph unicode="o" horiz-adv-x="1204" d="M76 496q0 232 149.5 384t376.5 152q231 0 377.5 -150.5t146.5 -385.5q0 -233 -149 -381t-377 -148q-229 0 -376.5 148.5t-147.5 380.5zM340 496q0 -148 72 -234t196 -86q125 0 189.5 82.5t64.5 233.5q0 153 -70.5 239t-195.5 86q-127 0 -191.5 -82.5t-64.5 -238.5z" />
<glyph unicode="p" horiz-adv-x="1253" d="M129 -465q21 320 21 1145v106q0 68 -19 213h217q17 -51 27 -129q169 162 381 162q83 0 152.5 -25.5t118.5 -70t83.5 -105.5t51 -132t16.5 -150q0 -87 -19 -169.5t-59 -157.5t-97.5 -131.5t-141.5 -90t-183 -33.5q-167 0 -279 115v-547h-270zM401 463q0 -295 242 -295 q119 0 188.5 93t69.5 237q0 137 -62 223t-184 86q-72 0 -139.5 -26t-114.5 -70v-248z" />
<glyph unicode="q" horiz-adv-x="1247" d="M76 449q0 87 19 169.5t59.5 158t98.5 132t143 90t186 33.5q217 0 327 -141q29 50 45 125h174q-14 -140 -14 -316v-1165h-272q13 202 16 569q-89 -71 -174 -105t-188 -34q-100 0 -181 39t-132.5 106t-79 153.5t-27.5 185.5zM348 496q0 -142 66 -224t188 -82 q67 0 135.5 27.5t120.5 71.5v246q0 148 -58 221t-186 73q-124 0 -195 -91.5t-71 -241.5z" />
<glyph unicode="r" horiz-adv-x="776" d="M102 999h209q23 -56 31 -137q135 170 305 170q62 0 119 -28v-232q-69 16 -123 16q-123 0 -237 -81v-707h-256v573q0 236 -48 426z" />
<glyph unicode="s" horiz-adv-x="837" d="M78 74v162q120 -74 268 -74q170 0 170 108q0 35 -23.5 60.5t-61 43t-83 34t-91 40.5t-83 55t-61 84t-23.5 122q0 150 111.5 236.5t273.5 86.5q113 0 223 -35v-233q-89 53 -225 53q-61 0 -98 -27.5t-37 -68.5q0 -31 23 -55.5t60 -42t82 -35.5t90 -43t82 -57.5t60 -86 t23 -122.5q0 -77 -29.5 -137.5t-80 -98t-115 -57t-138.5 -19.5q-189 0 -317 107z" />
<glyph unicode="t" horiz-adv-x="833" d="M43 805v194h168v267l272 45q-12 -187 -12 -312h305v-194h-307q-8 -183 -8 -473q0 -74 33.5 -104.5t101.5 -30.5q100 0 180 51v-187q-136 -94 -289 -94q-128 0 -202 69.5t-74 215.5v553h-168z" />
<glyph unicode="u" horiz-adv-x="1173" d="M129 326v673h256v-608q0 -182 174 -182q112 0 207 65v725h256v-751q0 -137 29 -248h-226q-14 47 -20 106q-178 -139 -363 -139q-137 0 -225 90t-88 269z" />
<glyph unicode="v" horiz-adv-x="1021" d="M-6 999h291q54 -133 123.5 -348.5t109.5 -374.5q144 400 227 723h265q-216 -627 -369 -989q-7 -18 -82.5 -28.5t-183.5 -10.5q-70 246 -179.5 543.5t-201.5 484.5z" />
<glyph unicode="w" horiz-adv-x="1636" d="M-2 999h272q53 -134 117 -338.5t102 -363.5q163 487 218 702h223q145 -420 213 -704q147 410 215 704h250q-196 -615 -346 -989q-7 -17 -77.5 -27t-172.5 -10q-74 291 -199 652q-108 -356 -211 -615q-6 -17 -76 -27t-172 -10q-65 240 -168 538.5t-188 487.5z" />
<glyph unicode="x" horiz-adv-x="1071" d="M0 0q225 271 401 506q-155 213 -381 493h314l215 -288q87 122 190 288h289q-167 -254 -334 -483q156 -211 363 -516h-312q-108 173 -204 311q-150 -194 -246 -311h-295z" />
<glyph unicode="y" horiz-adv-x="1024" d="M-4 999h291q56 -141 125 -354t106 -371q143 400 227 725h265q-170 -509 -344 -925l-228 -539h-272q82 185 209 445q-64 221 -176 524.5t-203 494.5z" />
<glyph unicode="z" horiz-adv-x="995" d="M43 80q77 81 261 325t282 390q-297 -5 -475 -35v239h831l4 -75q-18 -23 -225.5 -316t-292.5 -399q351 4 518 24l-28 -233h-869z" />
<glyph unicode="{" horiz-adv-x="1054" d="M152 455v180h49q79 0 130.5 17.5t79.5 55t39 87t11 123.5q0 48 -7.5 154t-7.5 167q0 94 17 169t60.5 143t113 113.5t179.5 72t255 26.5v-207q-91 -1 -156 -20t-103.5 -49t-60.5 -79t-29 -99.5t-7 -122.5q0 -56 9 -167t9 -167q0 -124 -53 -203.5t-166 -97.5 q112 -18 163.5 -102.5t51.5 -208.5q0 -51 -8 -161t-8 -171q0 -73 7 -124.5t29 -101t60.5 -79t104 -47.5t157.5 -19v-209q-145 1 -254 27t-178.5 70.5t-112.5 111t-60 141t-17 168.5q0 56 7 164t7 162q0 72 -11 121t-39 87.5t-80.5 56.5t-131.5 18h-49z" />
<glyph unicode="|" horiz-adv-x="849" d="M297 -625v2292h256v-2292h-256z" />
<glyph unicode="}" horiz-adv-x="1054" d="M-12 -463q91 1 156.5 19.5t104 49t61 79.5t29.5 100t7 123q0 57 -9 167.5t-9 166.5q0 123 52 203t165 98q-112 18 -164.5 102t-52.5 209q0 50 9 160.5t9 171.5q0 73 -7 125t-29 103t-60.5 82.5t-104 50.5t-157.5 20v207q144 0 254 -27.5t179 -74t112 -115.5t60 -145 t17 -169q0 -55 -7 -161.5t-7 -161.5q0 -73 11 -122.5t39.5 -87.5t80.5 -55.5t131 -17.5h49v-180h-49q-79 0 -131.5 -18t-80.5 -56t-39 -87t-11 -122q0 -48 7 -155.5t7 -168.5q0 -94 -17 -169t-60 -142t-112.5 -112t-178.5 -71.5t-254 -27.5v209z" />
<glyph unicode="~" d="M98 489q12 161 84 258t191 97q50 0 97.5 -16.5t85 -40t72.5 -47t74 -40t76 -16.5q55 0 87.5 43.5t37.5 116.5l144 -23q-12 -163 -86.5 -260.5t-182.5 -97.5q-49 0 -97 16.5t-86 39.5t-74 46t-74.5 39.5t-73.5 16.5q-116 0 -133 -170z" />
<glyph unicode="&#xa1;" horiz-adv-x="759" d="M227 870q0 73 44.5 117.5t115.5 44.5q69 0 112.5 -44.5t43.5 -117.5q0 -70 -42.5 -112.5t-113.5 -42.5t-115.5 42.5t-44.5 112.5zM246 -547l59 1112h166q4 -96 27.5 -556t27.5 -556h-280z" />
<glyph unicode="&#xa2;" d="M186 893q0 220 124 375t317 196v222h123v-213q123 -3 229 -46v-233q-85 46 -229 49v-598q143 3 229 57v-151q-36 -45 -95.5 -77t-133.5 -44v-227h-123v219q-201 9 -321 133.5t-120 337.5zM444 932q0 -96 46.5 -170.5t136.5 -95.5v555q-183 -53 -183 -289z" />
<glyph unicode="&#xa3;" d="M82 641v152h145q-15 65 -22 157q0 130 40 232.5t109 165t157.5 95t190.5 32.5q199 0 342 -41v-279q-144 72 -299 72q-130 0 -194 -54t-64 -169q0 -86 27 -211h363v-152h-332q16 -126 16 -158q0 -109 -53 -231q325 3 541 29l-27 -281h-821q96 188 96 379q-5 93 -39 262 h-176z" />
<glyph unicode="&#xa4;" d="M-39 1151l172 170l195 -215q118 72 245 72q130 0 248 -72l183 205l167 -164l-196 -182q72 -127 72 -265q0 -125 -66 -254q107 -101 193 -174l-173 -174l-180 195q-113 -74 -248 -74q-131 0 -254 76l-182 -199q-36 40 -170 174l201 179q-66 116 -66 251q0 136 70 256z M342 700q0 -130 63.5 -204t169.5 -74q107 0 170.5 73t63.5 203q0 128 -65.5 202.5t-172.5 74.5q-106 0 -167.5 -72.5t-61.5 -202.5z" />
<glyph unicode="&#xa5;" d="M-90 1434h328q193 -267 344 -568q155 306 342 568h301q-298 -401 -461 -711h285v-133h-338q0 -24 -1 -87t-1 -91h258v-133h-258v-279h-267v279h-262v133h262v178h-346v133h289q-167 296 -475 711z" />
<glyph unicode="&#xa6;" horiz-adv-x="849" d="M297 264h256v-889h-256v889zM297 778v889h256v-889h-256z" />
<glyph unicode="&#xa7;" horiz-adv-x="1396" d="M119 815q0 130 41 239.5t111 186t164 130t200 79t219 25.5q148 0 287 -45v-265q-116 58 -246 58q-207 0 -207 -174q0 -35 8 -66q9 -60 47.5 -115t92 -100t115.5 -91t122.5 -98t110 -111t80 -140.5t30.5 -175.5q0 -127 -40 -234.5t-107.5 -182t-157 -126.5t-187 -76.5 t-198.5 -24.5q-248 0 -403 125v177q145 -86 297 -86q106 0 168.5 51.5t62.5 156.5q0 6 -10 74q-11 60 -51 114.5t-93.5 98t-115.5 87.5t-122 94t-109 107t-79 136t-30 172zM350 860q0 -72 33 -138t86.5 -119t117.5 -105t128 -106.5t117.5 -112.5t86.5 -134t33 -161 q0 -102 -41 -160q164 122 164 309q0 66 -21 123.5t-65 108.5t-91 91.5t-118 90.5q-57 40 -96.5 71.5t-83 75t-69.5 85.5t-43 96t-17 114q0 106 45 166q-166 -117 -166 -295z" />
<glyph unicode="&#xa8;" horiz-adv-x="985" d="M201 1313q0 60 37 96.5t92 36.5t92 -36.5t37 -96.5q0 -59 -37 -97t-92 -38t-92 38t-37 97zM647 1313q0 60 37 96.5t92 36.5q54 0 90.5 -36.5t36.5 -96.5q0 -59 -37 -97t-90 -38q-55 0 -92 38t-37 97z" />
<glyph unicode="&#xaa;" horiz-adv-x="839" d="M80 1061q0 120 115 206.5t333 110.5v27q0 43 -36 66.5t-97 23.5q-123 0 -248 -59v188q137 41 283 41q141 0 221 -63.5t80 -188.5q0 -43 -3 -144.5t-3 -170.5q0 -98 35 -209h-205q-13 52 -16 123q-56 -81 -118 -112.5t-142 -31.5q-94 0 -146.5 51.5t-52.5 141.5zM295 1102 q0 -68 67 -68q23 0 48.5 11t51.5 34.5t44 68t20 103.5q-231 -36 -231 -149z" />
<glyph unicode="&#xab;" horiz-adv-x="1658" d="M158 426v254l624 375l84 -131l-426 -371l426 -371l-84 -137zM803 426v254l622 375l86 -131l-426 -371l426 -371l-86 -137z" />
<glyph unicode="&#xac;" horiz-adv-x="1185" d="M80 453v239h1003v-692h-235v453h-768z" />
<glyph unicode="&#xad;" horiz-adv-x="743" d="M127 444v242h494v-242h-494z" />
<glyph unicode="&#xaf;" horiz-adv-x="960" d="M211 1239v170h537v-170h-537z" />
<glyph unicode="&#xb0;" horiz-adv-x="991" d="M96 1059q0 187 115 300.5t283 113.5q173 0 287 -112.5t114 -301.5q0 -190 -115 -304t-286 -114q-169 0 -283.5 114t-114.5 304zM338 1059q0 -105 43.5 -172.5t116.5 -67.5q75 0 116 65.5t41 172.5q0 105 -44.5 170t-118.5 65q-73 0 -113.5 -64t-40.5 -169z" />
<glyph unicode="&#xb1;" d="M66 0v219h1011v-219h-1011zM68 731v221h391v394h229v-394h389v-221h-389v-391h-229v391h-391z" />
<glyph unicode="&#xb2;" horiz-adv-x="815" d="M72 979q218 127 310.5 219.5t92.5 185.5q0 129 -145 129q-95 0 -185 -34v188q103 23 217 23q155 0 242.5 -68t87.5 -188q0 -198 -248 -359q133 0 281 8l-29 -194h-612z" />
<glyph unicode="&#xb3;" horiz-adv-x="815" d="M135 1489l23 176h557l16 -59q-129 -151 -242 -248q110 -14 168 -75.5t58 -147.5q0 -123 -94.5 -197t-264.5 -74q-126 0 -209 35v143q65 -22 168 -22q168 0 168 113q0 100 -131 100q-55 0 -114 -19l-35 93q140 85 227 190q-115 0 -295 -8z" />
<glyph unicode="&#xb4;" horiz-adv-x="800" d="M188 1151l240 403h277l-351 -421z" />
<glyph unicode="&#xb5;" horiz-adv-x="1228" d="M123 -487q18 131 35.5 351.5t17.5 350.5q-22 248 -22 475q0 164 8 309h268q-7 -317 -24 -608q1 -84 37 -126t98 -42q76 0 133.5 32.5t116.5 109.5q-11 250 -11 634h267q-6 -267 -31 -647q0 -90 18.5 -122.5t75.5 -32.5q40 0 92 20v-184q-89 -66 -201 -66q-93 0 -142 49 t-52 166q-70 -106 -138 -153t-157 -47q-70 0 -127 43v-474q-44 -7 -131 -19t-131 -19z" />
<glyph unicode="&#xb6;" horiz-adv-x="1288" d="M115 938q0 97 35.5 184t104 157.5t181.5 112t256 42.5h426v-1434h-289q23 391 23 1217h-109l-24 -721q-74 -19 -125 -19q-115 0 -207 36t-151 99.5t-90 146.5t-31 179z" />
<glyph unicode="&#xb7;" d="M391 569q0 80 49.5 130.5t128.5 50.5q80 0 132.5 -51t52.5 -130q0 -82 -52.5 -134t-132.5 -52q-78 0 -128 51.5t-50 134.5z" />
<glyph unicode="&#xb8;" horiz-adv-x="907" d="M272 -459l56 121q53 -20 116 -20q55 0 86 23.5t31 58.5q0 38 -39.5 56.5t-140.5 18.5q66 146 90 201h143l-49 -94q238 -3 238 -191q0 -87 -84.5 -147t-231.5 -60q-136 0 -215 33z" />
<glyph unicode="&#xb9;" horiz-adv-x="815" d="M143 1413v193l447 92q-17 -282 -17 -809h-213v579z" />
<glyph unicode="&#xba;" horiz-adv-x="944" d="M63 1262q0 173 116.5 288t291.5 115q178 0 294 -114t116 -289q0 -173 -118 -285.5t-292 -112.5q-177 0 -292.5 113t-115.5 285zM281 1262q0 -104 53.5 -167t142.5 -63q88 0 135 60.5t47 167.5q0 109 -51 171t-141 62q-91 0 -138.5 -60t-47.5 -171z" />
<glyph unicode="&#xbb;" horiz-adv-x="1658" d="M160 178l426 371l-426 371l84 137l624 -381v-254l-624 -375zM805 178l426 371l-426 371l84 137l624 -381v-254l-624 -375z" />
<glyph unicode="&#xbc;" horiz-adv-x="1746" d="M129 1182v192l446 92q-16 -265 -16 -809h-213v580zM217 0l1047 1434h262l-1049 -1434h-260zM881 262q79 122 193.5 265t221.5 255q19 19 181 19v-465h131l-15 -172h-116v-164h-197v164h-379zM1106 336h174v213q-94 -101 -174 -213z" />
<glyph unicode="&#xbd;" horiz-adv-x="1746" d="M131 1182v192l447 92q-17 -282 -17 -809h-213v580zM217 0l1047 1434h262l-1049 -1434h-260zM1044 90q217 125 310.5 218.5t93.5 187.5q0 60 -35.5 93.5t-109.5 33.5q-92 0 -185 -35v190q108 21 217 21q156 0 243 -67.5t87 -188.5q0 -99 -65 -190.5t-183 -168.5 q145 0 281 11l-29 -195h-612z" />
<glyph unicode="&#xbe;" horiz-adv-x="1746" d="M135 1257l23 177h557l16 -60q-129 -151 -242 -248q110 -14 168 -75.5t58 -147.5q0 -123 -94.5 -196.5t-264.5 -73.5q-126 0 -209 35v143q68 -23 168 -23q168 0 168 113q0 100 -131 100q-58 0 -114 -18l-35 92q138 84 227 191q-92 0 -295 -9zM252 0l1046 1434h263 l-1049 -1434h-260zM870 262q78 121 193 264.5t223 255.5q19 19 180 19v-465h131l-14 -172h-117v-164h-196v164h-379zM1096 336h174v213q-94 -101 -174 -213z" />
<glyph unicode="&#xbf;" horiz-adv-x="931" d="M80 -131q0 69 23 128.5t59.5 103.5t80.5 84t88 76t80.5 72.5t59.5 82.5t23 96q0 22 -7 53h181q43 -76 43 -145q0 -44 -17 -84.5t-44.5 -72.5t-61 -63t-67 -61.5t-61 -61t-44.5 -68.5t-17 -79q0 -79 53.5 -119t143.5 -40q117 0 238 59v-262q-150 -45 -308 -45 q-200 0 -323 87t-123 259zM399 870q0 74 44.5 118t117.5 44q70 0 112 -44t42 -118q0 -69 -42 -112t-112 -43q-72 0 -117 43t-45 112z" />
<glyph unicode="&#xc0;" horiz-adv-x="1376" d="M-8 0q291 807 569 1442q31 31 285 31q219 -676 545 -1473h-306q-3 8 -36.5 99t-63.5 173.5t-35 100.5h-551q-73 -212 -123 -373h-284zM426 1864h264l242 -330l-168 -18zM471 590h408q-176 522 -189 575q-85 -211 -219 -575z" />
<glyph unicode="&#xc1;" horiz-adv-x="1376" d="M-8 0q291 807 569 1442q31 31 285 31q219 -676 545 -1473h-306q-3 8 -36.5 99t-63.5 173.5t-35 100.5h-551q-73 -212 -123 -373h-284zM471 590h408q-176 522 -189 575q-85 -211 -219 -575zM510 1534l242 330h264l-338 -348z" />
<glyph unicode="&#xc2;" horiz-adv-x="1376" d="M-8 0q291 807 569 1442q31 31 285 31q219 -676 545 -1473h-306q-3 8 -36.5 99t-63.5 173.5t-35 100.5h-551q-73 -212 -123 -373h-284zM356 1532l248 340h209l248 -340l-152 -21l-207 189l-204 -189zM471 590h408q-176 522 -189 575q-85 -211 -219 -575z" />
<glyph unicode="&#xc3;" horiz-adv-x="1376" d="M-8 0q291 807 569 1442q31 31 285 31q219 -676 545 -1473h-306q-3 8 -36.5 99t-63.5 173.5t-35 100.5h-551q-73 -212 -123 -373h-284zM328 1559q12 138 74 216t169 78q45 0 83.5 -13.5t65.5 -32.5t52 -38.5t52.5 -33t56.5 -13.5q90 0 100 131l115 -10 q-10 -145 -73.5 -218t-164.5 -73q-52 0 -97.5 20.5t-72.5 45t-62.5 45t-68.5 20.5q-56 0 -81.5 -34t-31.5 -105zM471 590h408q-176 522 -189 575q-85 -211 -219 -575z" />
<glyph unicode="&#xc4;" horiz-adv-x="1376" d="M-8 0q291 807 569 1442q31 31 285 31q219 -676 545 -1473h-306q-3 8 -36.5 99t-63.5 173.5t-35 100.5h-551q-73 -212 -123 -373h-284zM346 1659q0 57 38 93t95 36q55 0 93 -36t38 -93q0 -56 -38 -92.5t-93 -36.5q-56 0 -94.5 36.5t-38.5 92.5zM471 590h408 q-176 522 -189 575q-85 -211 -219 -575zM805 1659q0 57 38 93t93 36q56 0 93.5 -35.5t37.5 -93.5q0 -56 -37.5 -92.5t-93.5 -36.5q-55 0 -93 36.5t-38 92.5z" />
<glyph unicode="&#xc5;" horiz-adv-x="1376" d="M-8 0q291 807 569 1442q15 15 90 24q-90 12 -145 69t-55 146q0 101 72.5 165.5t181.5 64.5q108 0 178.5 -64t70.5 -166q0 -81 -45 -135t-121 -73h58q219 -676 545 -1473h-306q-3 8 -36.5 99t-63.5 173.5t-35 100.5h-551q-73 -212 -123 -373h-284zM471 590h408 q-176 522 -189 575q-85 -211 -219 -575zM602 1679q0 -44 28.5 -69t74.5 -25q45 0 70.5 22.5t25.5 67.5q0 48 -28.5 72.5t-74.5 24.5q-96 0 -96 -93z" />
<glyph unicode="&#xc6;" horiz-adv-x="2011" d="M-143 0q650 904 1052 1401q29 33 265 33h688v-250q-167 18 -551 18q-8 -150 -11 -368q292 0 482 12v-234q-140 11 -482 11q-4 -127 -4 -383q409 3 639 20l-28 -260h-879v373h-577q-165 -227 -261 -373h-333zM596 590h432v594q-249 -335 -432 -594z" />
<glyph unicode="&#xc7;" horiz-adv-x="1333" d="M123 682q0 118 32.5 231.5t100 215.5t162 179t228.5 122t290 45q171 0 311 -33v-277q-118 62 -303 62q-167 0 -286.5 -71.5t-176.5 -188.5t-57 -265q0 -220 134 -354.5t364 -134.5q175 0 325 72v-205q-142 -96 -334 -111l-32 -63q237 -3 237 -191q0 -87 -84.5 -147 t-230.5 -60q-136 0 -215 33l55 121q53 -20 117 -20q55 0 86 23.5t31 58.5q0 38 -40 56.5t-141 18.5q35 73 78 172q-197 15 -346.5 113.5t-227 253.5t-77.5 344z" />
<glyph unicode="&#xc8;" horiz-adv-x="1171" d="M184 0v1434h838v-250q-155 17 -555 20q-6 -126 -10 -368q295 0 485 12v-238q-140 11 -485 11q-4 -254 -4 -381q414 3 641 20l-27 -260h-883zM338 1864h264l242 -330l-168 -18z" />
<glyph unicode="&#xc9;" horiz-adv-x="1171" d="M184 0v1434h838v-250q-155 17 -555 20q-6 -126 -10 -368q295 0 485 12v-238q-140 11 -485 11q-4 -254 -4 -381q414 3 641 20l-27 -260h-883zM451 1534l241 330h264l-338 -348z" />
<glyph unicode="&#xca;" horiz-adv-x="1171" d="M184 0v1434h838v-250q-155 17 -555 20q-6 -126 -10 -368q295 0 485 12v-238q-140 11 -485 11q-4 -254 -4 -381q414 3 641 20l-27 -260h-883zM283 1532l247 340h209l248 -340l-151 -21l-207 189l-205 -189z" />
<glyph unicode="&#xcb;" horiz-adv-x="1171" d="M184 0v1434h838v-250q-155 17 -555 20q-6 -126 -10 -368q295 0 485 12v-238q-140 11 -485 11q-4 -254 -4 -381q414 3 641 20l-27 -260h-883zM279 1659q0 57 38 93t95 36q55 0 93 -36t38 -93q0 -56 -38 -92.5t-93 -36.5q-56 0 -94.5 36.5t-38.5 92.5zM737 1659q0 57 38 93 t93 36q56 0 93.5 -35.5t37.5 -93.5q0 -56 -37.5 -92.5t-93.5 -36.5q-55 0 -93 36.5t-38 92.5z" />
<glyph unicode="&#xcc;" horiz-adv-x="645" d="M66 1864h264l241 -330l-168 -18zM184 0v1434h291q-22 -282 -22 -1434h-269z" />
<glyph unicode="&#xcd;" horiz-adv-x="645" d="M131 1534l242 330h264l-338 -348zM184 0v1434h291q-22 -282 -22 -1434h-269z" />
<glyph unicode="&#xce;" horiz-adv-x="645" d="M-25 1532l248 340h209l248 -340l-152 -21l-206 189l-205 -189zM184 0v1434h291q-22 -282 -22 -1434h-269z" />
<glyph unicode="&#xcf;" horiz-adv-x="645" d="M-31 1659q0 57 38 93t95 36q55 0 93 -36t38 -93q0 -56 -38 -92.5t-93 -36.5q-56 0 -94.5 36.5t-38.5 92.5zM184 0v1434h291q-22 -282 -22 -1434h-269zM428 1659q0 57 38 93t93 36q56 0 93.5 -35.5t37.5 -93.5q0 -56 -37.5 -92.5t-93.5 -36.5q-55 0 -93 36.5t-38 92.5z " />
<glyph unicode="&#xd0;" horiz-adv-x="1558" d="M66 662v149h124v623h414q203 0 364 -57t262 -156t153.5 -228.5t52.5 -279.5q0 -115 -30 -219t-94.5 -194.5t-157.5 -157t-226.5 -104.5t-294.5 -38h-443v662h-124zM459 225h129q148 0 256.5 35t172 101t93 151t29.5 193q0 232 -134 363.5t-397 131.5h-135 q-8 -222 -8 -389h221v-149h-225q0 -79 -1 -229.5t-1 -207.5z" />
<glyph unicode="&#xd1;" horiz-adv-x="1611" d="M184 0v1434h344q386 -564 635 -979v979h279q-25 -323 -25 -1424q0 -19 -74.5 -29t-177.5 -10q-337 574 -719 1102v-1073h-262zM438 1559q12 138 74.5 216t169.5 78q55 0 101.5 -20.5t74 -45t63 -45t70.5 -20.5q91 0 101 131l114 -10q-10 -145 -73.5 -218t-163.5 -73 q-52 0 -97.5 20.5t-72.5 45t-62.5 45t-68.5 20.5q-56 0 -81.5 -34t-31.5 -105z" />
<glyph unicode="&#xd2;" horiz-adv-x="1818" d="M123 711q0 153 62 294t167 244t251.5 164.5t307.5 61.5q162 0 307 -58t250 -157t166.5 -237t61.5 -292q0 -156 -62.5 -297.5t-168.5 -244t-252.5 -162.5t-307.5 -60q-162 0 -306.5 57.5t-249 156.5t-165.5 237t-61 293zM428 719q0 -217 141 -356.5t346 -139.5 q133 0 241.5 62t171.5 175.5t63 258.5q0 109 -38.5 203t-104.5 158.5t-155.5 101.5t-189.5 37q-204 0 -339.5 -140t-135.5 -360zM651 1864h264l242 -330l-168 -18z" />
<glyph unicode="&#xd3;" horiz-adv-x="1818" d="M123 711q0 153 62 294t167 244t251.5 164.5t307.5 61.5q162 0 307 -58t250 -157t166.5 -237t61.5 -292q0 -156 -62.5 -297.5t-168.5 -244t-252.5 -162.5t-307.5 -60q-162 0 -306.5 57.5t-249 156.5t-165.5 237t-61 293zM428 719q0 -217 141 -356.5t346 -139.5 q133 0 241.5 62t171.5 175.5t63 258.5q0 109 -38.5 203t-104.5 158.5t-155.5 101.5t-189.5 37q-204 0 -339.5 -140t-135.5 -360zM713 1534l241 330h265l-338 -348z" />
<glyph unicode="&#xd4;" horiz-adv-x="1818" d="M123 711q0 153 62 294t167 244t251.5 164.5t307.5 61.5q162 0 307 -58t250 -157t166.5 -237t61.5 -292q0 -156 -62.5 -297.5t-168.5 -244t-252.5 -162.5t-307.5 -60q-162 0 -306.5 57.5t-249 156.5t-165.5 237t-61 293zM428 719q0 -217 141 -356.5t346 -139.5 q133 0 241.5 62t171.5 175.5t63 258.5q0 109 -38.5 203t-104.5 158.5t-155.5 101.5t-189.5 37q-204 0 -339.5 -140t-135.5 -360zM555 1532l248 340h209l248 -340l-152 -21l-207 189l-205 -189z" />
<glyph unicode="&#xd5;" horiz-adv-x="1818" d="M123 711q0 153 62 294t167 244t251.5 164.5t307.5 61.5q162 0 307 -58t250 -157t166.5 -237t61.5 -292q0 -156 -62.5 -297.5t-168.5 -244t-252.5 -162.5t-307.5 -60q-162 0 -306.5 57.5t-249 156.5t-165.5 237t-61 293zM428 719q0 -217 141 -356.5t346 -139.5 q133 0 241.5 62t171.5 175.5t63 258.5q0 109 -38.5 203t-104.5 158.5t-155.5 101.5t-189.5 37q-204 0 -339.5 -140t-135.5 -360zM524 1559q12 138 74.5 216t169.5 78q55 0 101.5 -20.5t74 -45t63 -45t70.5 -20.5q91 0 101 131l114 -10q-10 -145 -73.5 -218t-163.5 -73 q-52 0 -97.5 20.5t-72.5 45t-62.5 45t-68.5 20.5q-56 0 -81.5 -34t-31.5 -105z" />
<glyph unicode="&#xd6;" horiz-adv-x="1818" d="M123 711q0 153 62 294t167 244t251.5 164.5t307.5 61.5q162 0 307 -58t250 -157t166.5 -237t61.5 -292q0 -156 -62.5 -297.5t-168.5 -244t-252.5 -162.5t-307.5 -60q-162 0 -306.5 57.5t-249 156.5t-165.5 237t-61 293zM428 719q0 -217 141 -356.5t346 -139.5 q133 0 241.5 62t171.5 175.5t63 258.5q0 109 -38.5 203t-104.5 158.5t-155.5 101.5t-189.5 37q-204 0 -339.5 -140t-135.5 -360zM549 1659q0 57 38 93t95 36q55 0 93 -36t38 -93q0 -56 -38 -92.5t-93 -36.5q-56 0 -94.5 36.5t-38.5 92.5zM1008 1659q0 57 38 93t93 36 q56 0 93.5 -35.5t37.5 -93.5q0 -56 -37.5 -92.5t-93.5 -36.5q-55 0 -93 36.5t-38 92.5z" />
<glyph unicode="&#xd7;" d="M137 276l277 279l-277 276l160 162l278 -278l275 276l156 -155l-277 -275l281 -278l-164 -162l-277 278l-276 -276z" />
<glyph unicode="&#xd8;" horiz-adv-x="1818" d="M123 711q0 153 62 294t167 244t251.5 164.5t307.5 61.5q197 0 381 -93l121 168l146 -75q-21 -30 -66.5 -92t-67.5 -93q127 -100 199 -246t72 -313q0 -156 -62.5 -297.5t-168.5 -244t-252.5 -162.5t-307.5 -60q-205 0 -383 90l-133 -184l-145 76q25 33 72.5 100.5 t72.5 100.5q-125 102 -195.5 247t-70.5 314zM432 725q0 -103 35.5 -193.5t97.5 -154.5l559 788q-111 54 -221 54q-203 0 -337 -138.5t-134 -355.5zM690 274q105 -51 225 -51q133 0 241.5 62t171.5 175.5t63 258.5q0 103 -38 192t-104 152z" />
<glyph unicode="&#xd9;" horiz-adv-x="1544" d="M164 1434h282v-871q0 -90 25.5 -157t72 -105.5t104.5 -57t130 -18.5q151 0 239.5 85t88.5 276v848h276q-6 -95 -11 -422t-5 -490q0 -137 -51.5 -245t-138.5 -174.5t-196.5 -101t-231.5 -34.5q-118 0 -219.5 32t-181 94.5t-125.5 165t-46 233.5q0 187 -4 521.5t-8 420.5z M459 1864h264l242 -330l-168 -18z" />
<glyph unicode="&#xda;" horiz-adv-x="1544" d="M164 1434h282v-871q0 -90 25.5 -157t72 -105.5t104.5 -57t130 -18.5q151 0 239.5 85t88.5 276v848h276q-6 -95 -11 -422t-5 -490q0 -137 -51.5 -245t-138.5 -174.5t-196.5 -101t-231.5 -34.5q-118 0 -219.5 32t-181 94.5t-125.5 165t-46 233.5q0 187 -4 521.5t-8 420.5z M606 1534l242 330h264l-338 -348z" />
<glyph unicode="&#xdb;" horiz-adv-x="1544" d="M164 1434h282v-871q0 -90 25.5 -157t72 -105.5t104.5 -57t130 -18.5q151 0 239.5 85t88.5 276v848h276q-6 -95 -11 -422t-5 -490q0 -137 -51.5 -245t-138.5 -174.5t-196.5 -101t-231.5 -34.5q-118 0 -219.5 32t-181 94.5t-125.5 165t-46 233.5q0 187 -4 521.5t-8 420.5z M420 1532l248 340h209l247 -340l-151 -21l-207 189l-205 -189z" />
<glyph unicode="&#xdc;" horiz-adv-x="1544" d="M164 1434h282v-871q0 -90 25.5 -157t72 -105.5t104.5 -57t130 -18.5q151 0 239.5 85t88.5 276v848h276q-6 -95 -11 -422t-5 -490q0 -137 -51.5 -245t-138.5 -174.5t-196.5 -101t-231.5 -34.5q-118 0 -219.5 32t-181 94.5t-125.5 165t-46 233.5q0 187 -4 521.5t-8 420.5z M414 1659q0 57 38 93t95 36q55 0 93 -36t38 -93q0 -56 -38 -92.5t-93 -36.5q-56 0 -94.5 36.5t-38.5 92.5zM872 1659q0 57 38.5 93t93.5 36q56 0 93.5 -35.5t37.5 -93.5q0 -56 -37.5 -92.5t-93.5 -36.5q-55 0 -93.5 36.5t-38.5 92.5z" />
<glyph unicode="&#xdd;" horiz-adv-x="1331" d="M-20 1434h331q173 -244 369 -582q191 327 373 582h299q-159 -213 -349.5 -500.5t-193.5 -329.5q-4 -201 -4 -604h-266v596q0 46 -190 327t-369 511zM514 1534l242 330h264l-338 -348z" />
<glyph unicode="&#xde;" horiz-adv-x="1216" d="M184 0v1434h291q-7 -103 -10 -258h156q134 0 238.5 -37t167.5 -101t95.5 -144.5t32.5 -172.5t-30.5 -170.5t-89.5 -140t-155 -96.5t-218 -35q-86 0 -209 20v-299h-269zM455 483q78 -8 123 -8q151 0 225 65.5t74 174.5q0 107 -71.5 174t-211.5 67h-135q-4 -294 -4 -473z " />
<glyph unicode="&#xdf;" horiz-adv-x="1214" d="M150 0v1090q0 213 134.5 332.5t358.5 119.5q108 0 192.5 -31t136.5 -84.5t78.5 -122.5t26.5 -149q0 -97 -59 -174q-3 -44 -25.5 -89t-58.5 -73h-19q-43 0 -67.5 -24.5t-24.5 -63.5q0 -31 17 -59t44 -51.5t59.5 -48.5t65.5 -54.5t60 -63.5t44 -82t17 -104 q0 -149 -94.5 -225t-234.5 -76q-142 0 -244 99v147q38 -29 90.5 -46t102.5 -17q116 0 116 106q0 38 -32 75.5t-77 72.5t-90.5 75t-77.5 98.5t-32 127.5q0 115 69.5 185t170.5 73q28 67 28 139q0 88 -51 154.5t-147 66.5t-153 -57t-60 -176q-13 -435 -13 -1090h-251z" />
<glyph unicode="&#xe0;" horiz-adv-x="1085" d="M100 221q0 163 152 278t440 146v41q0 141 -186 141q-166 0 -318 -71v225q172 51 363 51q185 0 289 -82.5t104 -247.5q0 -74 -5 -218.5t-5 -213.5q0 -135 41 -270h-250q-20 88 -20 168q-74 -113 -156 -154t-199 -41q-119 0 -184.5 66t-65.5 182zM258 1554h277l239 -403 l-166 -18zM360 279q0 -103 103 -103q33 0 70 17.5t73.5 52.5t60.5 99.5t25 146.5q-168 -21 -250 -76t-82 -137z" />
<glyph unicode="&#xe1;" horiz-adv-x="1085" d="M100 221q0 163 152 278t440 146v41q0 141 -186 141q-166 0 -318 -71v225q172 51 363 51q185 0 289 -82.5t104 -247.5q0 -74 -5 -218.5t-5 -213.5q0 -135 41 -270h-250q-20 88 -20 168q-74 -113 -156 -154t-199 -41q-119 0 -184.5 66t-65.5 182zM360 279q0 -103 103 -103 q33 0 70 17.5t73.5 52.5t60.5 99.5t25 146.5q-168 -21 -250 -76t-82 -137zM369 1151l239 403h277l-350 -421z" />
<glyph unicode="&#xe2;" horiz-adv-x="1085" d="M100 221q0 163 152 278t440 146v41q0 141 -186 141q-166 0 -318 -71v225q172 51 363 51q185 0 289 -82.5t104 -247.5q0 -74 -5 -218.5t-5 -213.5q0 -135 41 -270h-250q-20 88 -20 168q-74 -113 -156 -154t-199 -41q-119 0 -184.5 66t-65.5 182zM195 1155l254 393h208 l254 -393l-157 -25l-207 242l-207 -242zM360 279q0 -103 103 -103q33 0 70 17.5t73.5 52.5t60.5 99.5t25 146.5q-168 -21 -250 -76t-82 -137z" />
<glyph unicode="&#xe3;" horiz-adv-x="1085" d="M100 221q0 163 152 278t440 146v41q0 141 -186 141q-166 0 -318 -71v225q172 51 363 51q185 0 289 -82.5t104 -247.5q0 -74 -5 -218.5t-5 -213.5q0 -135 41 -270h-250q-20 88 -20 168q-74 -113 -156 -154t-199 -41q-119 0 -184.5 66t-65.5 182zM188 1184 q15 135 73.5 209.5t156.5 74.5q53 0 98.5 -20t72 -43.5t59 -43.5t61.5 -20q78 0 90 119l114 -10q-13 -142 -74.5 -210.5t-152.5 -68.5q-48 0 -92 20t-70.5 43.5t-59 43.5t-61.5 20q-47 0 -69.5 -30t-30.5 -97zM360 279q0 -103 103 -103q33 0 70 17.5t73.5 52.5t60.5 99.5 t25 146.5q-168 -21 -250 -76t-82 -137z" />
<glyph unicode="&#xe4;" horiz-adv-x="1085" d="M100 221q0 163 152 278t440 146v41q0 141 -186 141q-166 0 -318 -71v225q172 51 363 51q185 0 289 -82.5t104 -247.5q0 -74 -5 -218.5t-5 -213.5q0 -135 41 -270h-250q-20 88 -20 168q-74 -113 -156 -154t-199 -41q-119 0 -184.5 66t-65.5 182zM211 1313q0 60 37 96.5 t92 36.5t92 -36.5t37 -96.5q0 -59 -37 -97t-92 -38t-92 38t-37 97zM360 279q0 -103 103 -103q33 0 70 17.5t73.5 52.5t60.5 99.5t25 146.5q-168 -21 -250 -76t-82 -137zM657 1313q0 60 37 96.5t92 36.5q54 0 90.5 -36.5t36.5 -96.5q0 -59 -37 -97t-90 -38q-55 0 -92 38 t-37 97z" />
<glyph unicode="&#xe5;" horiz-adv-x="1085" d="M100 221q0 163 152 278t440 146v41q0 141 -186 141q-166 0 -318 -71v225q172 51 363 51q185 0 289 -82.5t104 -247.5q0 -74 -5 -218.5t-5 -213.5q0 -135 41 -270h-250q-20 88 -20 168q-74 -113 -156 -154t-199 -41q-119 0 -184.5 66t-65.5 182zM301 1356q0 105 73 176.5 t179 71.5t177 -70.5t71 -177.5q0 -106 -71.5 -175t-176.5 -69q-109 0 -180.5 69t-71.5 175zM360 279q0 -103 103 -103q33 0 70 17.5t73.5 52.5t60.5 99.5t25 146.5q-168 -21 -250 -76t-82 -137zM453 1354q0 -49 28 -80t72 -31q45 0 69.5 28.5t24.5 78.5q0 52 -27.5 83 t-72.5 31t-69.5 -29t-24.5 -81z" />
<glyph unicode="&#xe6;" horiz-adv-x="1656" d="M100 221q0 163 152 278t440 146v41q0 69 -56.5 103t-148.5 34q-155 0 -299 -67v225q172 51 363 51q115 0 192 -41.5t111 -118.5q138 160 379 160q94 0 165.5 -30t112 -81t60.5 -109.5t20 -123.5q0 -125 -45 -207l-575 15q-5 -37 -2 -82q7 -111 84.5 -171.5t195.5 -60.5 q168 0 289 62v-148q-65 -63 -159 -96t-193 -33q-156 0 -267 58t-165 176q-87 -129 -180.5 -178.5t-223.5 -49.5q-119 0 -184.5 66t-65.5 182zM360 279q0 -103 103 -103q33 0 70 17.5t73.5 52.5t60.5 99.5t25 146.5q-168 -21 -250 -76t-82 -137zM987 657l377 5 q3 176 -156 176q-78 0 -135.5 -48t-85.5 -133z" />
<glyph unicode="&#xe7;" horiz-adv-x="935" d="M86 446q0 126 45.5 236.5t121.5 186.5t177 119.5t211 43.5q118 0 227 -45v-233q-92 51 -211 51q-141 0 -223 -88.5t-82 -235.5q0 -137 81 -214t216 -77q121 0 219 58v-158q-41 -46 -109 -78t-149 -41l-32 -65q237 -3 237 -191q0 -87 -84.5 -147t-230.5 -60 q-136 0 -215 33l55 121q53 -20 117 -20q55 0 85.5 23.5t30.5 58.5q0 38 -39.5 56.5t-140.5 18.5l78 174q-175 24 -280 147.5t-105 325.5z" />
<glyph unicode="&#xe8;" horiz-adv-x="1028" d="M76 444q0 263 148.5 425.5t379.5 162.5q76 0 137.5 -20t102 -53.5t68 -78.5t39.5 -93t12 -99q0 -125 -45 -207l-576 15q-5 -37 -2 -82q7 -111 85 -171.5t196 -60.5q167 0 288 62v-148q-65 -63 -159 -96t-193 -33q-218 0 -349.5 126.5t-131.5 350.5zM283 1554h276 l240 -403l-166 -18zM358 657l377 5q3 176 -155 176q-78 0 -136 -48t-86 -133z" />
<glyph unicode="&#xe9;" horiz-adv-x="1028" d="M76 444q0 263 148.5 425.5t379.5 162.5q76 0 137.5 -20t102 -53.5t68 -78.5t39.5 -93t12 -99q0 -125 -45 -207l-576 15q-5 -37 -2 -82q7 -111 85 -171.5t196 -60.5q167 0 288 62v-148q-65 -63 -159 -96t-193 -33q-218 0 -349.5 126.5t-131.5 350.5zM358 657l377 5 q3 176 -155 176q-78 0 -136 -48t-86 -133zM393 1151l240 403h276l-350 -421z" />
<glyph unicode="&#xea;" horiz-adv-x="1028" d="M76 444q0 263 148.5 425.5t379.5 162.5q76 0 137.5 -20t102 -53.5t68 -78.5t39.5 -93t12 -99q0 -125 -45 -207l-576 15q-5 -37 -2 -82q7 -111 85 -171.5t196 -60.5q167 0 288 62v-148q-65 -63 -159 -96t-193 -33q-218 0 -349.5 126.5t-131.5 350.5zM240 1155l254 393h208 l254 -393l-157 -25l-207 242l-207 -242zM358 657l377 5q3 176 -155 176q-78 0 -136 -48t-86 -133z" />
<glyph unicode="&#xeb;" horiz-adv-x="1028" d="M76 444q0 263 148.5 425.5t379.5 162.5q76 0 137.5 -20t102 -53.5t68 -78.5t39.5 -93t12 -99q0 -125 -45 -207l-576 15q-5 -37 -2 -82q7 -111 85 -171.5t196 -60.5q167 0 288 62v-148q-65 -63 -159 -96t-193 -33q-218 0 -349.5 126.5t-131.5 350.5zM231 1313 q0 60 37 96.5t92 36.5t92 -36.5t37 -96.5q0 -59 -37 -97t-92 -38t-92 38t-37 97zM358 657l377 5q3 176 -155 176q-78 0 -136 -48t-86 -133zM678 1313q0 60 37 96.5t92 36.5q54 0 90.5 -36.5t36.5 -96.5q0 -59 -37 -97t-90 -38q-55 0 -92 38t-37 97z" />
<glyph unicode="&#xec;" horiz-adv-x="577" d="M-6 1554h276l240 -403l-166 -18zM162 0v983l280 37q-22 -218 -22 -1020h-258z" />
<glyph unicode="&#xed;" horiz-adv-x="577" d="M125 1151l240 403h276l-350 -421zM162 0v983l280 37q-22 -218 -22 -1020h-258z" />
<glyph unicode="&#xee;" horiz-adv-x="577" d="M-57 1155l254 393h209l253 -393l-157 -25l-207 242l-207 -242zM162 0v983l280 37q-22 -218 -22 -1020h-258z" />
<glyph unicode="&#xef;" horiz-adv-x="577" d="M-53 1313q0 60 37 96.5t92 36.5t92 -36.5t37 -96.5q0 -59 -37 -97t-92 -38t-92 38t-37 97zM162 0v983l280 37q-22 -218 -22 -1020h-258zM393 1313q0 60 37 96.5t92 36.5q54 0 90.5 -36.5t36.5 -96.5q0 -59 -37 -97t-90 -38q-55 0 -92 38t-37 97z" />
<glyph unicode="&#xf0;" horiz-adv-x="1196" d="M76 487q0 227 144.5 373t352.5 146q129 0 228 -78q-51 163 -195 297q-92 -57 -192 -113l-90 111l161 92q-99 63 -198 88q22 28 61.5 81t52.5 70q162 -42 281 -122l180 104q73 -92 88 -111l-147 -86q148 -136 224.5 -320.5t76.5 -385.5q0 -310 -143.5 -488t-372.5 -178 q-230 0 -371 144t-141 376zM342 487q0 -148 63.5 -229.5t178.5 -81.5q123 0 187.5 95.5t64.5 248.5q0 275 -246 275q-128 0 -188 -75.5t-60 -232.5z" />
<glyph unicode="&#xf1;" horiz-adv-x="1173" d="M121 999h225q3 -8 11.5 -48.5t9.5 -57.5q182 139 362 139q66 0 121.5 -20.5t99 -62.5t68 -112.5t24.5 -162.5v-674h-256v608q0 183 -174 183q-106 0 -206 -68v-723h-256v752q0 136 -29 247zM172 1184q15 135 73 209.5t156 74.5q53 0 98.5 -20t72 -43.5t59 -43.5t61.5 -20 q78 0 90 119l115 -10q-13 -142 -74.5 -210.5t-152.5 -68.5q-48 0 -92 20t-70.5 43.5t-59 43.5t-61.5 20q-47 0 -69.5 -30t-30.5 -97z" />
<glyph unicode="&#xf2;" horiz-adv-x="1204" d="M76 496q0 232 149.5 384t376.5 152q231 0 377.5 -150.5t146.5 -385.5q0 -233 -149 -381t-377 -148q-229 0 -376.5 148.5t-147.5 380.5zM305 1554h277l239 -403l-166 -18zM340 496q0 -148 72 -234t196 -86q125 0 189.5 82.5t64.5 233.5q0 153 -70.5 239t-195.5 86 q-127 0 -191.5 -82.5t-64.5 -238.5z" />
<glyph unicode="&#xf3;" horiz-adv-x="1204" d="M76 496q0 232 149.5 384t376.5 152q231 0 377.5 -150.5t146.5 -385.5q0 -233 -149 -381t-377 -148q-229 0 -376.5 148.5t-147.5 380.5zM340 496q0 -148 72 -234t196 -86q125 0 189.5 82.5t64.5 233.5q0 153 -70.5 239t-195.5 86q-127 0 -191.5 -82.5t-64.5 -238.5z M377 1151l239 403h277l-350 -421z" />
<glyph unicode="&#xf4;" horiz-adv-x="1204" d="M76 496q0 232 149.5 384t376.5 152q231 0 377.5 -150.5t146.5 -385.5q0 -233 -149 -381t-377 -148q-229 0 -376.5 148.5t-147.5 380.5zM244 1155l254 393h209l254 -393l-158 -25l-207 242l-207 -242zM340 496q0 -148 72 -234t196 -86q125 0 189.5 82.5t64.5 233.5 q0 153 -70.5 239t-195.5 86q-127 0 -191.5 -82.5t-64.5 -238.5z" />
<glyph unicode="&#xf5;" horiz-adv-x="1204" d="M76 496q0 232 149.5 384t376.5 152q231 0 377.5 -150.5t146.5 -385.5q0 -233 -149 -381t-377 -148q-229 0 -376.5 148.5t-147.5 380.5zM242 1184q15 135 73 209.5t156 74.5q53 0 98.5 -20t72 -43.5t59 -43.5t61.5 -20q78 0 90 119l115 -10q-13 -142 -75 -210.5 t-153 -68.5q-48 0 -91.5 20t-70 43.5t-59 43.5t-61.5 20q-47 0 -70 -30t-31 -97zM340 496q0 -148 72 -234t196 -86q125 0 189.5 82.5t64.5 233.5q0 153 -70.5 239t-195.5 86q-127 0 -191.5 -82.5t-64.5 -238.5z" />
<glyph unicode="&#xf6;" horiz-adv-x="1204" d="M76 496q0 232 149.5 384t376.5 152q231 0 377.5 -150.5t146.5 -385.5q0 -233 -149 -381t-377 -148q-229 0 -376.5 148.5t-147.5 380.5zM252 1313q0 60 37 96.5t92 36.5t92 -36.5t37 -96.5q0 -59 -37 -97t-92 -38t-92 38t-37 97zM340 496q0 -148 72 -234t196 -86 q125 0 189.5 82.5t64.5 233.5q0 153 -70.5 239t-195.5 86q-127 0 -191.5 -82.5t-64.5 -238.5zM698 1313q0 60 37 96.5t92 36.5q54 0 90.5 -36.5t36.5 -96.5q0 -59 -37 -97t-90 -38q-55 0 -92 38t-37 97z" />
<glyph unicode="&#xf7;" d="M66 473v213h1011v-213h-1011zM432 176q0 60 37.5 98.5t97.5 38.5q63 0 103.5 -38.5t40.5 -98.5q0 -63 -40.5 -102t-103.5 -39q-59 0 -97 39t-38 102zM432 993q0 60 37.5 98.5t97.5 38.5q63 0 103.5 -38.5t40.5 -98.5q0 -63 -40.5 -102t-103.5 -39q-59 0 -97 39t-38 102z " />
<glyph unicode="&#xf8;" horiz-adv-x="1204" d="M76 496q0 232 149.5 384t376.5 152q122 0 229 -49l87 135l135 -55l-101 -156q83 -73 128.5 -178.5t45.5 -232.5q0 -233 -149 -381t-377 -148q-128 0 -231 47l-76 -118l-135 53l92 143q-83 71 -128.5 175.5t-45.5 228.5zM340 504q0 -126 53 -203q91 144 309 494 q-49 22 -106 22q-124 0 -190 -81t-66 -232zM496 201q52 -25 112 -25q125 0 189.5 82.5t64.5 233.5q0 127 -57 202z" />
<glyph unicode="&#xf9;" horiz-adv-x="1173" d="M129 326v673h256v-608q0 -182 174 -182q112 0 207 65v725h256v-751q0 -137 29 -248h-226q-14 47 -20 106q-178 -139 -363 -139q-137 0 -225 90t-88 269zM279 1554h276l240 -403l-166 -18z" />
<glyph unicode="&#xfa;" horiz-adv-x="1173" d="M129 326v673h256v-608q0 -182 174 -182q112 0 207 65v725h256v-751q0 -137 29 -248h-226q-14 47 -20 106q-178 -139 -363 -139q-137 0 -225 90t-88 269zM391 1151l240 403h276l-350 -421z" />
<glyph unicode="&#xfb;" horiz-adv-x="1173" d="M129 326v673h256v-608q0 -182 174 -182q112 0 207 65v725h256v-751q0 -137 29 -248h-226q-14 47 -20 106q-178 -139 -363 -139q-137 0 -225 90t-88 269zM223 1155l254 393h209l254 -393l-158 -25l-207 242l-206 -242z" />
<glyph unicode="&#xfc;" horiz-adv-x="1173" d="M129 326v673h256v-608q0 -182 174 -182q112 0 207 65v725h256v-751q0 -137 29 -248h-226q-14 47 -20 106q-178 -139 -363 -139q-137 0 -225 90t-88 269zM236 1313q0 60 37 96.5t92 36.5t92 -36.5t37 -96.5q0 -59 -37 -97t-92 -38t-92 38t-37 97zM682 1313q0 60 37 96.5 t92 36.5q54 0 90.5 -36.5t36.5 -96.5q0 -59 -37 -97t-90 -38q-55 0 -92 38t-37 97z" />
<glyph unicode="&#xfd;" horiz-adv-x="1024" d="M-4 999h291q56 -141 125 -354t106 -371q143 400 227 725h265q-170 -509 -344 -925l-228 -539h-272q82 185 209 445q-64 221 -176 524.5t-203 494.5zM381 1151l240 403h276l-350 -421z" />
<glyph unicode="&#xfe;" horiz-adv-x="1239" d="M137 -465q6 86 10.5 202t7 279t4.5 282t2.5 333t0.5 302.5v321v265.5l274 26q-23 -403 -26 -653q83 68 166 103.5t190 35.5q103 0 184.5 -38.5t132 -105.5t77 -153.5t26.5 -185.5q0 -87 -19 -169.5t-59 -157.5t-97.5 -131.5t-141.5 -90t-183 -33.5q-164 0 -276 115v-547 h-273zM410 463q0 -295 243 -295q118 0 188 93t70 237q0 137 -62 223t-183 86q-72 0 -140.5 -26t-115.5 -70v-248z" />
<glyph unicode="&#xff;" horiz-adv-x="1024" d="M-4 999h291q56 -141 125 -354t106 -371q143 400 227 725h265q-170 -509 -344 -925l-228 -539h-272q82 185 209 445q-64 221 -176 524.5t-203 494.5zM174 1313q0 60 37 96.5t92 36.5t92 -36.5t37 -96.5q0 -59 -37 -97t-92 -38t-92 38t-37 97zM621 1313q0 60 37 96.5 t92 36.5q54 0 90.5 -36.5t36.5 -96.5q0 -59 -37 -97t-90 -38q-55 0 -92 38t-37 97z" />
<glyph unicode="&#x152;" horiz-adv-x="2320" d="M123 711q0 154 62 294.5t166.5 243.5t251 164.5t308.5 61.5q133 0 258 -41h1002v-252q-121 15 -668 20q145 -158 170 -368q317 4 418 12v-234q-168 8 -420 11q-24 -216 -178 -383q547 4 752 20l-29 -260h-1083q-119 -33 -228 -33q-162 0 -307 57.5t-249.5 156.5t-165 237 t-60.5 293zM426 719q0 -217 141 -356.5t346 -139.5q133 0 241.5 62t171.5 175.5t63 258.5q0 109 -38.5 203t-104.5 158.5t-155.5 101.5t-189.5 37q-204 0 -339.5 -140t-135.5 -360z" />
<glyph unicode="&#x153;" horiz-adv-x="1812" d="M76 496q0 232 149.5 384t376.5 152q128 0 228.5 -50.5t164.5 -143.5q66 93 168 143.5t226 50.5q94 0 165.5 -30t112 -80t60.5 -108t20 -122q0 -123 -45 -205l-576 19q-4 -25 -4 -76q7 -121 85.5 -182.5t213.5 -61.5q165 0 273 60v-148q-66 -63 -161 -97t-192 -34 q-246 0 -368 162q-140 -162 -373 -162q-229 0 -376.5 148.5t-147.5 380.5zM340 496q0 -148 72 -234t196 -86q125 0 189.5 82.5t64.5 233.5q0 153 -70.5 239t-195.5 86q-127 0 -191.5 -82.5t-64.5 -238.5zM1149 666l377 4q2 82 -38 125t-118 43t-135.5 -45.5t-85.5 -126.5z " />
<glyph unicode="&#x178;" horiz-adv-x="1331" d="M-20 1434h331q173 -244 369 -582q191 327 373 582h299q-159 -213 -349.5 -500.5t-193.5 -329.5q-4 -201 -4 -604h-266v596q0 46 -190 327t-369 511zM315 1659q0 57 38.5 93t95.5 36q55 0 93 -36t38 -93q0 -56 -38 -92.5t-93 -36.5q-56 0 -95 36.5t-39 92.5zM774 1659 q0 57 38 93t93 36q56 0 93.5 -35.5t37.5 -93.5q0 -56 -37.5 -92.5t-93.5 -36.5q-55 0 -93 36.5t-38 92.5z" />
<glyph unicode="&#x2c6;" horiz-adv-x="1019" d="M156 1155l254 393h208l254 -393l-157 -25l-207 242l-207 -242z" />
<glyph unicode="&#x2dc;" horiz-adv-x="1071" d="M150 1184q15 135 73 209.5t156 74.5q53 0 98.5 -20t72 -43.5t59 -43.5t61.5 -20q78 0 90 119l114 -10q-13 -142 -74.5 -210.5t-152.5 -68.5q-48 0 -91.5 20t-70 43.5t-59 43.5t-61.5 20q-47 0 -70 -30t-31 -97z" />
<glyph unicode="&#x2000;" horiz-adv-x="955" />
<glyph unicode="&#x2001;" horiz-adv-x="1911" />
<glyph unicode="&#x2002;" horiz-adv-x="955" />
<glyph unicode="&#x2003;" horiz-adv-x="1911" />
<glyph unicode="&#x2004;" horiz-adv-x="637" />
<glyph unicode="&#x2005;" horiz-adv-x="477" />
<glyph unicode="&#x2006;" horiz-adv-x="318" />
<glyph unicode="&#x2007;" horiz-adv-x="318" />
<glyph unicode="&#x2008;" horiz-adv-x="238" />
<glyph unicode="&#x2009;" horiz-adv-x="382" />
<glyph unicode="&#x200a;" horiz-adv-x="106" />
<glyph unicode="&#x2010;" horiz-adv-x="743" d="M127 444v242h494v-242h-494z" />
<glyph unicode="&#x2011;" horiz-adv-x="743" d="M127 444v242h494v-242h-494z" />
<glyph unicode="&#x2012;" horiz-adv-x="743" d="M127 444v242h494v-242h-494z" />
<glyph unicode="&#x2013;" horiz-adv-x="1241" d="M94 389v219h1063v-219h-1063z" />
<glyph unicode="&#x2014;" horiz-adv-x="2080" d="M90 389v219h1925v-219h-1925z" />
<glyph unicode="&#x2018;" horiz-adv-x="641" d="M133 1049q90 342 215 596l156 -54q-92 -303 -105 -563z" />
<glyph unicode="&#x2019;" horiz-adv-x="641" d="M133 965q91 300 107 563q126 -11 266 -21q-87 -334 -217 -596q-27 8 -156 54z" />
<glyph unicode="&#x201a;" horiz-adv-x="641" d="M135 -330q93 316 109 563q184 -13 266 -20q-79 -304 -223 -594z" />
<glyph unicode="&#x201c;" horiz-adv-x="1079" d="M133 1051q86 330 215 596l158 -54q-91 -299 -107 -563zM578 1051q87 334 217 596l155 -54q-89 -295 -106 -563z" />
<glyph unicode="&#x201d;" horiz-adv-x="1079" d="M133 965q91 300 107 563q126 -11 266 -21q-87 -334 -217 -596q-27 8 -156 54zM578 965q90 296 106 563q135 -12 266 -21q-86 -330 -215 -596q-31 9 -88.5 29.5t-68.5 24.5z" />
<glyph unicode="&#x201e;" horiz-adv-x="1079" d="M129 -338q98 319 113 563q184 -13 266 -20q-84 -321 -219 -594zM565 -338q98 319 113 563q184 -13 266 -20q-84 -321 -219 -594z" />
<glyph unicode="&#x2022;" horiz-adv-x="1193" d="M231 563q0 153 109 261t262 108q154 0 261.5 -107.5t107.5 -261.5q0 -153 -107.5 -260.5t-261.5 -107.5q-153 0 -262 108t-109 260z" />
<glyph unicode="&#x202f;" horiz-adv-x="382" />
<glyph unicode="&#x2039;" horiz-adv-x="1021" d="M160 426v254l624 375l84 -131l-426 -371l426 -371l-84 -137z" />
<glyph unicode="&#x203a;" horiz-adv-x="1021" d="M162 182l426 369l-426 371q44 68 84 135l624 -379v-252l-624 -379q-40 67 -84 135z" />
<glyph unicode="&#x205f;" horiz-adv-x="477" />
<glyph unicode="&#x20ac;" d="M123 686q0 171 50 316.5t141 250t225.5 163.5t298.5 59q115 0 249 -29v-272q-111 53 -260 53q-277 0 -362 -264h450l-24 -136h-459q-8 -52 -8 -116q0 -66 6 -105h420l-25 -135h-360q81 -264 366 -264q138 0 261 57q0 -18 -5 -188q-152 -109 -358 -109q-272 0 -439 192.5 t-167 526.5z" />
<glyph unicode="&#xe000;" horiz-adv-x="1003" d="M0 0v1004h1004v-1004h-1004z" />
</font>
</defs>
</svg>
