<?xml version="1.0" standalone="no"?>
<!DOCTYPE svg PUBLIC "-//W3C//DTD SVG 1.1//EN" "http://www.w3.org/Graphics/SVG/1.1/DTD/svg11.dtd" >
<svg>
<metadata>
Created by FontForge 20110222 at Wed Feb 26 12:16:53 2014
 By deploy user
Copyright (c) 2009 Linotype Corp., www.linotype.com. All rights reserved. This font software may not be reproduced, modified, disclosed or transferred without the express written approval of Linotype Corp. Helvetica is a trademark of Linotype Corp. registered in the U.S. Patent and Trademark Office and may be registered in certain other jurisdictions in the name of Linotype Corp. or its licensee Linotype GmbH. This typeface is original artwork of Linotype Design Studio. The design may be protected in certain jurisdictions.
</metadata>
<defs>
<font id="HelveticaMonospacedW10" horiz-adv-x="600" >
  <font-face 
    font-family="HelveticaMonospacedW10"
    font-weight="400"
    font-stretch="normal"
    units-per-em="1000"
    panose-1="2 11 5 9 4 3 2 2 2 4"
    ascent="754"
    descent="-246"
    x-height="523"
    cap-height="718"
    bbox="-15 -220 631 924"
    underline-thickness="50"
    underline-position="-50"
    unicode-range="U+000D-2122"
  />
<missing-glyph horiz-adv-x="0" 
 />
    <glyph glyph-name=".notdef" horiz-adv-x="0" 
 />
    <glyph glyph-name="numbersign" unicode="#" 
d="M352 273l19 142h-124l-20 -142h125zM152 210h-103l9 63h103l19 142h-103l9 63h103l29 210h67l-29 -210h124l29 210h67l-29 -210h103l-9 -63h-103l-20 -142h103l-9 -63h-103l-29 -210h-66l29 210h-125l-29 -210h-66z" />
    <glyph glyph-name="dollar" unicode="$" 
d="M324 53q60 2 96 36t36 91q0 99 -132 128v-255zM277 638h-2q-51 0 -84 -33t-33 -83q0 -91 119 -113v229zM144 213q2 -39 8.5 -66.5t21.5 -46t40 -29.5t63 -17v265q-106 21 -156 67q-51 45 -51 130q0 41 15.5 76.5t42.5 62t64 41.5t81 15h4v64h47v-64q196 -15 203 -190h-85
q-9 101 -118 116v-238q125 -30 172 -76q48 -45 48 -127q0 -51 -16 -90.5t-45 -66.5t-69.5 -42t-89.5 -16v-96h-47v96q-221 9 -221 232h88z" />
    <glyph glyph-name="percent" unicode="%" 
d="M366 133q0 -50 19.5 -71.5t48.5 -21.5q26 0 47 21.5t21 71.5q0 49 -21 71t-47 22q-29 0 -48.5 -22t-19.5 -71zM308 133q0 78 36 112t90 34q26 0 49 -8t40 -26t27 -45.5t10 -66.5q0 -38 -10 -65.5t-27 -45.5t-40 -26.5t-49 -8.5q-54 0 -90 34.5t-36 111.5zM166 464
q26 0 47 21.5t21 71.5q0 49 -21 71t-47 22q-29 0 -48.5 -22t-19.5 -71q0 -50 19.5 -71.5t48.5 -21.5zM166 411q-54 0 -90 34.5t-36 111.5q0 78 36 112t90 34q26 0 49 -8t40 -26t27 -45.5t10 -66.5q0 -38 -10 -65.5t-27 -45.5t-40 -26.5t-49 -8.5zM496 709h58l-451 -729h-58z
" />
    <glyph glyph-name="ampersand" unicode="&#x26;" 
d="M117 180q0 -26 11 -48t29 -38t41.5 -24.5t48.5 -8.5q96 0 156 80l-163 198q-26 -18 -48 -33t-39 -32.5t-26.5 -39.5t-9.5 -54zM272 439q90 57 90 124q0 39 -22.5 59t-55.5 20q-42 0 -63 -21.5t-21 -56.5q0 -55 72 -125zM30 180q0 43 12 75t33 57.5t51 46t66 40.5
q-17 19 -31 37t-24 36.5t-16 39t-6 46.5q0 36 13 65.5t36 50.5t54 32.5t67 11.5q35 0 64.5 -10t51 -29t33.5 -46.5t12 -62.5q0 -34 -9.5 -60.5t-27 -48.5t-41 -41t-50.5 -38l130 -156q21 45 30 112h83q-5 -48 -20 -93t-38 -90l128 -155h-115l-67 82q-42 -51 -91 -74
t-118 -23q-47 0 -85.5 13t-66 38t-43 61.5t-15.5 82.5z" />
    <glyph glyph-name="quotesingle" unicode="'" 
d="M263 718h73v-255h-73v255z" />
    <glyph glyph-name="parenleft" unicode="(" 
d="M228 22q-44 109 -44 239q0 125 40 236q20 56 52 114.5t77 121.5h61q-45 -80 -73 -144t-39 -114q-24 -101 -24 -220q0 -117 32 -221q31 -102 105 -241h-59q-42 61 -73.5 118t-54.5 111z" />
    <glyph glyph-name="parenright" unicode=")" 
d="M185 -207q88 159 111 258q24 100 24 220q0 60 -8 115t-24 107q-16 51 -41.5 111t-62.5 129h58q42 -61 73.5 -118t54.5 -111q45 -108 45 -239q0 -121 -40 -236q-41 -114 -129 -236h-61z" />
    <glyph glyph-name="asterisk" unicode="*" 
d="M186 465l67 92l-108 34l20 55l105 -38v110h60v-110l105 38l20 -55l-108 -34l67 -92l-49 -34l-65 94l-65 -94z" />
    <glyph glyph-name="plus" unicode="+" 
d="M47 289h217v216h73v-216h216v-73h-216v-216h-73v216h-217v73z" />
    <glyph glyph-name="comma" unicode="," 
d="M248 106h104v-98q0 -62 -24 -103t-80 -52v46q53 6 53 101h-53v106z" />
    <glyph glyph-name="hyphen" unicode="-" 
d="M177 322h245v-90h-245v90z" />
    <glyph glyph-name="period" unicode="." 
d="M248 106h104v-106h-104v106z" />
    <glyph glyph-name="slash" unicode="/" 
d="M390 737h66l-245 -756h-67z" />
    <glyph glyph-name="zero" unicode="0" 
d="M300 60q72 0 109.5 69.5t37.5 212.5q0 142 -37.5 212t-109.5 70q-71 0 -109 -70t-38 -212q0 -137 37.5 -209.5t109.5 -72.5zM300 -19q-72 0 -118.5 32t-74 83t-38 115.5t-10.5 130.5t11 131t38 116t73.5 82.5t118.5 31.5q71 0 117.5 -31.5t74 -82.5t38.5 -116t11 -131
q0 -67 -11 -132t-38.5 -116t-74 -82t-117.5 -31z" />
    <glyph glyph-name="one" unicode="1" 
d="M118 83h167v416h-164v70q86 3 128 27q42 25 61 107h69v-620h151v-83h-412v83z" />
    <glyph glyph-name="two" unicode="2" 
d="M59 0q3 97 43 165q39 66 122 114l126 73q24 14 42 27.5t30 30t18 37.5t6 50t-11 52.5t-29.5 40t-44 25.5t-54.5 9q-38 0 -65 -13.5t-44 -37t-25 -55t-8 -67.5h-88q-2 121 61.5 186.5t181.5 65.5q47 0 87 -15t69.5 -42.5t46.5 -66t17 -86.5q0 -72 -35.5 -121.5
t-104.5 -87.5l-121 -66q-108 -59 -121 -135h382v-83h-481z" />
    <glyph glyph-name="three" unicode="3" 
d="M147 215q2 -81 40 -118t110 -37q31 0 59 9t49 26.5t33 43t12 57.5q0 64 -39.5 96.5t-124.5 32.5h-20t-20 -1v76q11 -2 22.5 -2h23.5q63 0 98.5 28.5t35.5 86.5q0 54 -38 82.5t-92 28.5q-36 0 -61.5 -11t-42 -31t-24.5 -47.5t-9 -61.5h-86q0 111 57.5 170.5t169.5 59.5
q44 0 83.5 -12t69 -35t47 -57.5t17.5 -80.5q0 -108 -90 -145v-2q117 -41 117 -164q0 -55 -19 -97t-53 -70.5t-80 -43.5t-101 -15q-110 0 -170 57.5t-65 176.5h91z" />
    <glyph glyph-name="four" unicode="4" 
d="M358 247v319h-2l-224 -319h226zM51 257l322 446h73v-456h103v-76h-103v-171h-88v171h-307v86z" />
    <glyph glyph-name="five" unicode="5" 
d="M150 174q7 -57 44.5 -87t104.5 -30q34 0 61 12.5t46.5 34t30 51t10.5 62.5q0 35 -11.5 64t-32 49.5t-49 32t-63.5 11.5q-79 0 -130 -67l-76 4l53 376h364v-85h-298l-30 -193q59 44 136 44q48 0 90 -17t73.5 -47t49.5 -71t18 -90q0 -56 -17.5 -101.5t-50 -78t-79 -50.5
t-103.5 -18q-103 0 -162.5 50t-69.5 144h91z" />
    <glyph glyph-name="six" unicode="6" 
d="M163 216q0 -33 10.5 -61.5t30 -49.5t46.5 -33t61 -12t60 13t43 35t26 51t9 62q0 64 -37.5 106t-104.5 42q-68 0 -106 -42.5t-38 -110.5zM309 -19q-122 0 -185.5 86t-63.5 260q0 68 12.5 135t42.5 120.5t80 87t125 33.5q41 0 77.5 -13t64.5 -37.5t45 -59t18 -77.5h-86
q-20 108 -121 108q-47 0 -79 -25.5t-51.5 -64.5t-28 -84.5t-8.5 -85.5l2 -2q56 86 167 86q48 0 88 -16.5t69.5 -46t46 -70.5t16.5 -90q0 -52 -16 -96.5t-46 -77.5t-73 -51.5t-96 -18.5z" />
    <glyph glyph-name="seven" unicode="7" 
d="M157 0q15 134 97 305q42 87 89 161t101 136h-387v86h486v-77q-101 -102 -183 -276q-42 -88 -68.5 -171t-37.5 -164h-97z" />
    <glyph glyph-name="eight" unicode="8" 
d="M154 200q0 -68 41 -104t109 -36q64 0 102.5 39t38.5 102q0 30 -11.5 53.5t-31 40.5t-46 26t-57.5 9q-30 0 -56.5 -9t-46 -25.5t-31 -41t-11.5 -54.5zM298 406q26 0 48.5 7.5t39.5 22t27 35.5t10 48t-10.5 47t-28.5 32.5t-42 19t-50 6.5q-52 0 -84.5 -29t-32.5 -81
q0 -25 10.5 -45t27.5 -34t39 -21.5t46 -7.5zM60 204q0 119 119 169q-95 38 -95 137q0 45 16 81t44.5 61t67.5 38t85 13q44 0 83 -11.5t68.5 -34.5t47 -57t18.5 -78q0 -106 -90 -148q57 -24 86 -69t29 -102q0 -53 -18 -94t-49.5 -69.5t-75 -43.5t-95.5 -15q-51 0 -95.5 13.5
t-76.5 41.5t-50.5 70t-18.5 98z" />
    <glyph glyph-name="nine" unicode="9" 
d="M298 314q69 0 102 45.5t33 114.5q0 66 -36 108t-106 42q-33 0 -58.5 -12.5t-43 -34t-26 -50t-8.5 -61.5q0 -74 35 -113t108 -39zM160 169q5 -53 35 -84t84 -31q51 0 81 25t47.5 63t26 84.5t14.5 90.5l-2 2q-57 -84 -161 -84q-51 0 -91.5 16.5t-69.5 46.5t-44.5 71.5
t-15.5 92.5t15.5 95t45 76.5t71 51t94.5 18.5q122 0 184 -81t62 -245q0 -66 -11.5 -136.5t-41 -128t-78.5 -94.5t-124 -37q-45 0 -83 13t-66 37.5t-44 59t-16 78.5h88z" />
    <glyph glyph-name="colon" unicode=":" 
d="M248 106h104v-106h-104v106zM248 516h104v-106h-104v106z" />
    <glyph glyph-name="semicolon" unicode=";" 
d="M248 106h104v-98q0 -62 -24 -103t-80 -52v46q53 6 53 101h-53v106zM248 516h104v-106h-104v106z" />
    <glyph glyph-name="less" unicode="&#x3c;" 
d="M47 288l506 207v-80l-408 -162l408 -162v-80l-506 207v70z" />
    <glyph glyph-name="equal" unicode="=" 
d="M47 188h506v-73h-506v73zM47 390h506v-73h-506v73z" />
    <glyph glyph-name="greater" unicode="&#x3e;" 
d="M47 91l408 162l-408 162v80l506 -207v-70l-506 -207v80z" />
    <glyph glyph-name="question" unicode="?" 
d="M247 102h97v-102h-97v102zM249 183q0 67 14 109q15 40 81 106q20 20 35 34.5t25 28.5t15 31.5t5 44.5q0 52 -34 83t-87 31q-133 0 -133 -158h-88q-2 55 13.5 98.5t45.5 73.5t72 46t93 16q45 0 83.5 -13.5t67 -39t45 -61.5t16.5 -82q0 -28 -5.5 -48.5t-17 -38t-28 -34.5
t-37.5 -38q-32 -30 -53 -55.5t-28 -41.5q-12 -30 -12 -92h-88z" />
    <glyph glyph-name="at" unicode="@" 
d="M277 115q21 0 38 19t30 48t20 62.5t7 62.5q0 39 -11 69.5t-38 30.5q-24 0 -41 -19t-28.5 -48.5t-16.5 -63.5t-5 -64q0 -40 9 -68.5t36 -28.5zM34 255q0 81 20.5 151.5t57.5 123.5t88.5 83.5t113.5 30.5q52 0 98 -23t80.5 -64t54.5 -98.5t20 -126.5q0 -59 -11.5 -111.5
t-34 -92t-54.5 -62.5t-74 -23q-41 0 -47 62h-2q-23 -32 -41.5 -47t-41.5 -15q-24 0 -43 13t-32 35t-19.5 51t-6.5 61q0 49 10.5 98.5t30.5 89t50.5 64t69.5 24.5q35 0 52.5 -19.5t30.5 -58.5l15 62h52q-5 -23 -14.5 -67t-24.5 -109q-29 -131 -29 -152q0 -27 16 -27
q22 0 38.5 20.5t27.5 52t16.5 70t5.5 73.5q0 58 -14.5 105.5t-40.5 81.5t-61 52.5t-77 18.5q-50 0 -90 -25t-68 -68.5t-42.5 -102.5t-14.5 -126q0 -71 15 -127.5t43.5 -97t69.5 -62t93 -21.5q96 0 171 104h61q-88 -166 -234 -166q-63 0 -115 25t-89.5 72.5t-58.5 115
t-21 152.5z" />
    <glyph glyph-name="A" unicode="A" 
d="M388 295l-86 316h-2l-89 -316h177zM250 718h110l220 -718h-106l-62 209h-227l-65 -209h-100z" />
    <glyph glyph-name="B" unicode="B" 
d="M327 83q63 0 97.5 35.5t34.5 95.5q0 61 -39 91t-109 30h-131v-252h147zM296 414q64 0 96.5 28t32.5 88q0 51 -31 78t-97 27h-117v-221h116zM84 718h255q36 0 69.5 -12t58.5 -35.5t40 -57t15 -76.5q0 -48 -26 -87.5t-70 -62.5q63 -25 96.5 -67t33.5 -108
q0 -51 -18.5 -90.5t-50 -66.5t-72 -41t-83.5 -14h-248v718z" />
    <glyph glyph-name="C" unicode="C" 
d="M315 -19q-67 0 -116.5 29.5t-82 81.5t-48.5 121.5t-16 149.5t17.5 148.5t52.5 118.5t86 78.5t119 28.5q45 0 85 -15.5t70.5 -45t51 -73.5t28.5 -101h-94q-11 74 -47.5 111.5t-93.5 37.5q-45 0 -77.5 -23t-54.5 -62t-32.5 -91t-10.5 -109q0 -299 178 -299q30 0 54 15
t42.5 41t30.5 62.5t18 78.5h94q-7 -66 -28.5 -118t-54.5 -89t-76.5 -56.5t-94.5 -19.5z" />
    <glyph glyph-name="D" unicode="D" 
d="M289 83q46 0 78 23.5t52 62.5t29 89.5t9 104.5q0 56 -9.5 105.5t-30.5 86.5t-54.5 58.5t-81.5 21.5h-100v-552h108zM84 718h211q65 0 114 -27.5t81.5 -75t49 -111t16.5 -135.5q0 -75 -16 -142t-48.5 -117.5t-82.5 -80t-118 -29.5h-207v718z" />
    <glyph glyph-name="E" unicode="E" 
d="M95 718h433v-86h-336v-220h303v-86h-303v-240h343v-86h-440v718z" />
    <glyph glyph-name="F" unicode="F" 
d="M91 718h437v-86h-340v-220h292v-86h-292v-326h-97v718z" />
    <glyph glyph-name="G" unicode="G" 
d="M315 -19q-65 0 -114 26.5t-82 76.5t-50 121t-17 160q0 75 18.5 142.5t53 118.5t84.5 81t114 30q37 0 73.5 -16t66 -46.5t49.5 -74.5t25 -100h-94q-11 71 -42.5 111t-82.5 40q-42 0 -73 -24t-51.5 -64.5t-30.5 -93t-10 -109.5q0 -65 9 -119.5t29 -93.5t52 -61t79 -22
q61 0 98.5 59t37.5 176v2h-134v83h225v-384h-63l-23 93q-28 -57 -66.5 -84.5t-80.5 -27.5z" />
    <glyph glyph-name="H" unicode="H" 
d="M86 718h96v-297h235v297h97v-718h-97v335h-235v-335h-96v718z" />
    <glyph glyph-name="I" unicode="I" 
d="M118 86h133v546h-133v86h363v-86h-133v-546h133v-86h-363v86z" />
    <glyph glyph-name="J" unicode="J" 
d="M64 231h91v-49q0 -59 27 -88.5t91 -29.5q125 0 125 124v444h-286v86h383v-524q0 -101 -56 -157t-161 -56q-47 0 -86 11.5t-67.5 34t-44.5 56t-16 78.5v70z" />
    <glyph glyph-name="K" unicode="K" 
d="M87 718h96v-334l268 334h114l-274 -326l282 -392h-115l-230 317l-45 -54v-263h-96v718z" />
    <glyph glyph-name="L" unicode="L" 
d="M99 718h96v-632h335v-86h-431v718z" />
    <glyph glyph-name="M" unicode="M" 
d="M36 718h149l114 -567h3l113 567h149v-718h-94v424v23t0.5 41.5t1 44t0.5 30.5h-3l-121 -563h-96l-121 562h-3q0 -9 0.5 -28t1 -41t0.5 -41v-28v-424h-94v718z" />
    <glyph glyph-name="N" unicode="N" 
d="M85 718h114l219 -540h2v540h94v-718h-108l-226 540h-2v-540h-93v718z" />
    <glyph glyph-name="O" unicode="O" 
d="M460 359q0 58 -10.5 111t-31 93.5t-50 64t-68.5 23.5t-69 -24t-50.5 -64t-30.5 -93t-10 -111q0 -59 10 -112t30.5 -93t50.5 -63.5t69 -23.5q38 0 67.5 23.5t50 63t31.5 92.5t11 113zM560 359q0 -79 -18 -148t-51.5 -120t-82 -80.5t-108.5 -29.5q-62 0 -110.5 29t-81.5 80
t-50.5 120t-17.5 149q0 79 17.5 148t50.5 120t81.5 80.5t110.5 29.5q61 0 109.5 -29.5t82 -80.5t51 -120t17.5 -148z" />
    <glyph glyph-name="P" unicode="P" 
d="M189 386h123q146 0 146 129q0 59 -35 89.5t-107 30.5h-127v-249zM189 0h-97v718h253q46 0 85 -14t67.5 -40.5t44.5 -64t16 -83.5q0 -48 -15 -87t-43 -67t-67 -43.5t-88 -15.5h-156v-303z" />
    <glyph glyph-name="Q" unicode="Q" 
d="M345 208l68 -64q23 40 35 95.5t12 119.5q0 58 -10.5 111t-31 93.5t-50 64t-68.5 23.5t-69 -24t-50.5 -64t-30.5 -93t-10 -111q0 -59 10 -112t30.5 -93t50.5 -63.5t69 -23.5q31 0 59 17l-68 64zM560 359q0 -85 -20 -156.5t-58 -123.5l82 -77l-54 -58l-84 78
q-27 -20 -58.5 -30.5t-67.5 -10.5q-62 0 -110.5 29t-81.5 80t-50.5 120t-17.5 149q0 79 17.5 148t50.5 120t81.5 80.5t110.5 29.5q61 0 109.5 -29.5t82 -80.5t51 -120t17.5 -148z" />
    <glyph glyph-name="R" unicode="R" 
d="M178 391h135q66 0 96 32t30 92q0 62 -28 91t-82 29h-151v-244zM178 0h-97v718h242q106 0 160.5 -49.5t54.5 -143.5q0 -63 -24.5 -104t-74.5 -68q48 -20 66 -49.5t20 -85.5l6 -134q1 -29 7 -43t30 -25v-16h-120q-5 15 -8.5 38.5t-5.5 49.5t-2.5 50.5t-0.5 41.5q0 22 -3 45
t-14.5 41.5t-33 30t-57.5 11.5h-145v-308z" />
    <glyph glyph-name="S" unicode="S" 
d="M445 508q-2 37 -14 64.5t-32 45.5t-46.5 27t-55.5 9q-65 0 -99.5 -32.5t-34.5 -93.5q0 -33 18.5 -54t66.5 -37l145 -47q80 -26 121.5 -72.5t41.5 -119.5q0 -59 -21 -100t-56 -67t-80 -38t-94 -12q-54 0 -102 14t-83.5 44.5t-55.5 78t-19 114.5h91q0 -44 13 -75.5
t35.5 -52t53 -30.5t66.5 -10q75 0 116.5 31t41.5 90q0 28 -8 48t-22.5 34.5t-36 24.5t-48.5 18l-125 36q-78 23 -115.5 64t-37.5 105q0 53 16.5 94.5t45.5 70t68.5 43t86.5 14.5q118 0 181.5 -54.5t68.5 -174.5h-91z" />
    <glyph glyph-name="T" unicode="T" 
d="M250 632h-212v86h523v-86h-214v-632h-97v632z" />
    <glyph glyph-name="U" unicode="U" 
d="M532 718v-466q0 -64 -17.5 -114t-49 -85t-75.5 -53.5t-97 -18.5q-51 0 -92.5 17t-71.5 50t-46 81t-16 110v479h96v-452q0 -91 32.5 -145t99.5 -54q65 0 102 50t37 147v454h98z" />
    <glyph glyph-name="V" unicode="V" 
d="M465 718h109l-223 -718h-102l-222 718h108l165 -592h2z" />
    <glyph glyph-name="W" unicode="W" 
d="M214 0h-121l-89 718h108l50 -571h2l75 571h132l73 -571h2l52 571h99l-90 -718h-121l-84 585h-2z" />
    <glyph glyph-name="X" unicode="X" 
d="M575 0h-120l-153 295l-159 -295h-117l217 368l-201 350h122l142 -275l142 275h116l-201 -350z" />
    <glyph glyph-name="Y" unicode="Y" 
d="M349 0h-97v289l-231 429h113l166 -345l166 345h114l-231 -429v-289z" />
    <glyph glyph-name="Z" unicode="Z" 
d="M537 0h-485v81l360 551h-327v86h452v-84l-362 -548h362v-86z" />
    <glyph glyph-name="bracketleft" unicode="[" 
d="M285 -125h108v-71h-187v918h187v-71h-108v-776z" />
    <glyph glyph-name="backslash" unicode="\" 
d="M144 737h66l246 -756h-67z" />
    <glyph glyph-name="bracketright" unicode="]" 
d="M314 651h-108v71h187v-918h-187v71h108v776z" />
    <glyph glyph-name="asciicircum" unicode="^" 
d="M471 269l-171 339l-171 -339h-78l213 419h72l212 -419h-77z" />
    <glyph glyph-name="underscore" unicode="_" 
d="M0 -123v49h600v-49h-600z" />
    <glyph glyph-name="grave" unicode="`" 
d="M172 734h104l72 -141h-67z" />
    <glyph glyph-name="a" unicode="a" 
d="M420 267q-9 -9 -39 -17q-14 -3 -40.5 -7t-65.5 -9q-58 -8 -85 -29t-27 -56q0 -43 22.5 -67t73.5 -24q26 0 54.5 8.5t52 24t39 38.5t15.5 52v86zM98 364q6 174 216 174q36 0 70.5 -8t62.5 -25.5t45 -45.5t17 -67v-301q0 -31 28 -31q5 0 12.5 1t16.5 3v-64
q-12 -5 -24.5 -7.5t-25.5 -2.5q-45 0 -66.5 19t-23.5 61q-75 -85 -189 -85q-35 0 -65 10.5t-52 30t-34.5 47.5t-12.5 63q0 69 39 111.5t114 51.5l155 19q42 4 42 62q0 85 -123 85q-56 0 -85 -24t-35 -77h-82z" />
    <glyph glyph-name="b" unicode="b" 
d="M458 263q0 45 -6.5 80t-22.5 60t-44 39t-70 17q-70 -1 -105.5 -54t-35.5 -155q0 -40 8 -74.5t25 -60t44 -40t66 -14.5t66 17.5t43.5 46t24 64.5t7.5 74zM90 0v718h88v-261h2q55 81 151 81q54 0 95 -21.5t68 -57.5t41 -83.5t14 -98.5q0 -57 -13 -110t-41 -93.5
t-71.5 -64.5t-104.5 -24q-96 0 -144 80h-2v-65h-83z" />
    <glyph glyph-name="c" unicode="c" 
d="M448 347q-24 112 -134 112q-42 0 -71.5 -16.5t-48 -44.5t-26.5 -63.5t-8 -72.5q0 -102 39 -151.5t114 -49.5q27 0 49.5 10t40 27t29 39.5t16.5 47.5h85q-15 -97 -73 -148.5t-149 -51.5q-59 0 -104.5 20.5t-76.5 55.5t-47.5 83t-16.5 103q0 61 16 114t48 92.5t81.5 62
t115.5 22.5q45 0 81.5 -14t63.5 -39t42.5 -60t18.5 -78h-85z" />
    <glyph glyph-name="d" unicode="d" 
d="M159 263q0 -38 7 -74t23.5 -64.5t43.5 -46t67 -17.5q36 0 63 14t45 38t26.5 56t8.5 68q0 222 -141 222q-43 0 -70.5 -14.5t-43.5 -40.5t-22.5 -62t-6.5 -79zM532 0h-83v72h-2q-50 -87 -151 -87q-60 0 -103 25t-71 65.5t-41 93t-13 108.5q0 52 13.5 99.5t41 83.5t68.5 57
t95 21q97 0 156 -89h2v269h88v-718z" />
    <glyph glyph-name="e" unicode="e" 
d="M466 303q-8 75 -44 115.5t-112 40.5q-35 0 -63.5 -12.5t-48.5 -33.5t-31.5 -49.5t-11.5 -60.5h311zM550 164q-9 -41 -30 -74.5t-52.5 -57t-71.5 -36t-86 -12.5q-60 0 -106.5 20t-78 55t-48 83.5t-16.5 104.5q0 63 15.5 116t48 92t81.5 61t116 22q65 0 110 -25t72.5 -67
t40 -97.5t12.5 -115.5h-402q0 -82 40.5 -127t121.5 -45q24 0 48.5 7.5t45 21.5t34.5 32.5t17 41.5h88z" />
    <glyph glyph-name="f" unicode="f" 
d="M336 450v-450h-88v450h-172v73h172v50q0 79 50.5 117t145.5 38h51.5t48.5 -2v-79q-20 1 -40 1.5t-56 0.5q-64 0 -88 -23.5t-24 -77.5v-25h208v-73h-208z" />
    <glyph glyph-name="g" unicode="g" 
d="M161 263q0 -38 7 -74t23.5 -64.5t43.5 -46t67 -17.5q37 0 64 14t44.5 38t26 56t8.5 68q0 222 -141 222q-72 0 -107.5 -47.5t-35.5 -148.5zM529 30q0 -250 -243 -250q-88 0 -140 40.5t-60 115.5h88q7 -38 35.5 -60.5t82.5 -22.5q74 0 111.5 39t37.5 129v37h-2
q-49 -73 -139 -73q-61 0 -104.5 24.5t-71.5 65t-41 93t-13 109.5q0 52 13.5 99t41 83t68.5 57.5t95 21.5q99 0 156 -89h2v74h83v-493z" />
    <glyph glyph-name="h" unicode="h" 
d="M513 0h-88v342q0 63 -24 90t-80 27q-69 0 -107.5 -43.5t-38.5 -130.5v-285h-88v718h88v-265h2q60 85 153 85q87 0 135 -44.5t48 -137.5v-356z" />
    <glyph glyph-name="i" unicode="i" 
d="M344 523v-450h200v-73h-488v73h200v377h-160v73h248zM256 618v100h88v-100h-88z" />
    <glyph glyph-name="j" unicode="j" 
d="M405 523v-600q0 -71 -43.5 -102t-130.5 -31q-41 0 -77 3v76h63q32 0 52 2.5t30.5 9.5t14 19.5t3.5 32.5v517h-160v73h248zM405 618h-88v100h88v-100z" />
    <glyph glyph-name="k" unicode="k" 
d="M537 0h-113l-163 264l-73 -66v-198h-85v718h85v-416l225 221h112l-200 -195z" />
    <glyph glyph-name="l" unicode="l" 
d="M354 718v-645h200v-73h-488v73h200v572h-160v73h248z" />
    <glyph glyph-name="m" unicode="m" 
d="M28 523h83v-74h2q42 89 118 89q69 0 99 -85q14 22 26.5 38t26 26.5t29.5 15.5t38 5q28 0 50.5 -13t38.5 -36t24.5 -55.5t8.5 -71.5v-362h-88v338q0 121 -57 121q-19 0 -34 -12t-26 -32t-17 -45t-6 -51v-319h-88v362q0 45 -11 71t-31 26q-26 0 -44.5 -14.5t-30.5 -38.5
t-17.5 -55.5t-5.5 -65.5v-285h-88v523z" />
    <glyph glyph-name="n" unicode="n" 
d="M513 0h-88v322q0 33 -5 58.5t-17.5 43t-34.5 26.5t-55 9q-35 0 -61 -14t-43 -38t-25.5 -55.5t-8.5 -66.5v-285h-88v523h83v-74h2q62 89 158 89q90 0 136.5 -47t46.5 -135v-356z" />
    <glyph glyph-name="o" unicode="o" 
d="M157 262q0 -38 8.5 -73.5t26.5 -64t47 -45.5t70 -17q40 0 69 17.5t48 46t27.5 64.5t8.5 72q0 37 -8.5 72.5t-27.5 63.5t-48 45.5t-69 17.5t-68.5 -17t-47 -44.5t-27.5 -63.5t-9 -74zM67 262q0 55 16 105t47 88t76 60.5t103 22.5t103.5 -22.5t76.5 -60.5t47 -88t16 -105
t-16 -105t-46.5 -88.5t-76 -61t-104.5 -22.5q-58 0 -103 22.5t-76 60.5t-47 88t-16 106z" />
    <glyph glyph-name="p" unicode="p" 
d="M174 237q0 -36 9 -68t26.5 -56t44.5 -38t63 -14q40 0 67 17.5t43.5 46t23.5 65t7 73.5q0 103 -35.5 149.5t-107.5 46.5q-70 0 -105.5 -54.5t-35.5 -167.5zM90 523h83v-74h2q56 89 156 89q55 0 96 -21.5t68 -57.5t40.5 -83t13.5 -99q0 -57 -13 -109.5t-41 -93t-71.5 -65
t-104.5 -24.5q-91 0 -139 70h-2v-262h-88v730z" />
    <glyph glyph-name="q" unicode="q" 
d="M445 237q0 222 -141 222q-42 0 -70 -14.5t-44 -40.5t-22.5 -62t-6.5 -79q0 -37 7 -73.5t23.5 -65t43.5 -46t67 -17.5q34 0 61 14t45 38t27.5 56t9.5 68zM529 -207h-88v262h-2q-51 -70 -139 -70q-61 0 -104.5 24.5t-71.5 65t-41 93t-13 109.5q0 51 14 98.5t41 83.5
t68 57.5t95 21.5q99 0 156 -89h2v74h83v-730z" />
    <glyph glyph-name="r" unicode="r" 
d="M240 0h-88v523h83v-87h2q75 102 197 102q35 0 73 -3v-91h-73q-43 0 -78.5 -14t-61 -38t-40 -57t-14.5 -71v-264z" />
    <glyph glyph-name="s" unicode="s" 
d="M413 374q-2 48 -33.5 68t-90.5 20q-18 0 -36.5 -3.5t-33.5 -11t-24.5 -20t-9.5 -29.5q0 -28 15 -44t40 -26t58.5 -16.5t69.5 -15.5q32 -9 59 -20t46.5 -27.5t30.5 -41t11 -59.5q0 -41 -16.5 -71.5t-45 -51t-66 -30.5t-79.5 -10q-221 0 -224 183h85q4 -107 138 -107
q56 0 88 19t32 54q0 27 -9.5 41.5t-32.5 25t-63 19.5t-101 24q-63 16 -92 49.5t-29 87.5q0 39 16 68.5t43.5 49t63.5 29.5t76 10q84 0 138.5 -41t60.5 -123h-85z" />
    <glyph glyph-name="t" unicode="t" 
d="M327 450v-300q0 -41 24 -61t86 -20h94v-69q-32 -3 -64.5 -5t-61.5 -2q-88 0 -127 35.5t-39 116.5v305h-171v73h171v146h88v-146h204v-73h-204z" />
    <glyph glyph-name="u" unicode="u" 
d="M89 523h88v-347q0 -58 26 -86.5t75 -28.5q37 0 64 14t45 38t26.5 55.5t8.5 66.5v288h88v-523h-83v76l-2 2q-50 -93 -166 -93q-37 0 -68.5 10.5t-54 31t-35 51t-12.5 69.5v376z" />
    <glyph glyph-name="v" unicode="v" 
d="M456 523h96l-209 -523h-94l-201 523h102l146 -426h2z" />
    <glyph glyph-name="w" unicode="w" 
d="M224 0h-100l-111 523h95l70 -391h2l61 391h119l62 -391h2l76 391h87l-111 -523h-102l-76 385h-2z" />
    <glyph glyph-name="x" unicode="x" 
d="M539 0h-113l-129 197l-126 -197h-111l183 269l-174 254h112l121 -184l122 184h107l-176 -254z" />
    <glyph glyph-name="y" unicode="y" 
d="M462 523h96l-207 -513q-10 -27 -21.5 -55t-22.5 -52.5t-21.5 -44t-17.5 -29.5q-31 -43 -100 -43q-35 0 -59 8v80q25 -9 55 -9t47 21q7 10 18.5 34.5t25.5 64.5l-214 538h99l160 -426h2z" />
    <glyph glyph-name="z" unicode="z" 
d="M207 73h302v-73h-419v69l296 381h-271v73h384v-72z" />
    <glyph glyph-name="braceleft" unicode="{" 
d="M175 294q22 2 37 14t25 30t14.5 40t4.5 43v172q0 24 6.5 47t19.5 41t32 29.5t44 11.5h67v-65h-44q-24 0 -35 -22t-11 -60v-165q0 -22 -5.5 -44.5t-16.5 -42.5t-27.5 -35.5t-38.5 -22.5v-2q44 -16 66 -56t22 -92v-164q0 -39 11.5 -60.5t34.5 -21.5h44v-65h-67
q-25 0 -44 11t-32 29.5t-19.5 41.5t-6.5 47v171q0 22 -4 44.5t-14 40.5t-25.5 30.5t-37.5 14.5v60z" />
    <glyph glyph-name="bar" unicode="|" 
d="M263 737h73v-756h-73v756z" />
    <glyph glyph-name="braceright" unicode="}" 
d="M425 234q-23 -2 -38 -14.5t-25 -30.5t-14 -40.5t-4 -44.5v-171q0 -24 -6.5 -47t-19.5 -41t-32 -29.5t-44 -11.5h-67v65h44q23 0 34.5 21.5t11.5 60.5v164q0 52 22 92t66 56v2q-22 7 -38.5 22.5t-27.5 35.5t-16.5 42.5t-5.5 44.5v165q0 38 -11 60t-35 22h-44v65h67
q25 0 44 -11.5t32 -29.5t19.5 -41t6.5 -47v-172q0 -21 4.5 -43t14 -40t25 -30t37.5 -14v-60z" />
    <glyph glyph-name="asciitilde" unicode="~" 
d="M566 266q-48 -90 -143 -90q-24 0 -54.5 8t-68.5 25q-19 9 -34 16t-29.5 12.5t-30 8.5t-34.5 3q-64 0 -98 -75l-41 57q49 90 143 90q48 0 123 -33q19 -9 34 -16t29.5 -12t30 -8t35.5 -3q60 0 98 74z" />
    <glyph glyph-name="uni00A0" unicode="&#xa0;" 
 />
    <glyph glyph-name="ellipsis" unicode="&#x2026;" 
d="M149 0h-104v106h104v-106zM352 0h-104v106h104v-106zM555 0h-104v106h104v-106z" />
    <glyph glyph-name="uni00AD" unicode="&#xad;" 
d="M177 322h245v-90h-245v90z" />
    <glyph glyph-name="quoteleft" unicode="&#x2018;" 
d="M352 470h-104v98q0 69 24 106.5t80 50.5v-47q-53 -8 -53 -102h53v-106z" />
    <glyph glyph-name="quoteright" unicode="&#x2019;" 
d="M248 718h104v-98q0 -69 -24.5 -106.5t-79.5 -50.5v47q53 8 53 102h-53v106z" />
    <glyph glyph-name="quotedblleft" unicode="&#x201c;" 
d="M249 470h-104v98q0 69 24 106.5t80 50.5v-47q-53 -8 -53 -102h53v-106zM454 470h-104v98q0 69 24 106.5t80 50.5v-47q-53 -8 -53 -102h53v-106z" />
    <glyph glyph-name="quotedblright" unicode="&#x201d;" 
d="M145 718h104v-98q0 -69 -24.5 -106.5t-79.5 -50.5v47q53 8 53 102h-53v106zM350 718h104v-98q0 -69 -24.5 -106.5t-79.5 -50.5v47q53 8 53 102h-53v106z" />
    <glyph glyph-name="quotesinglbase" unicode="&#x201a;" 
d="M248 106h104v-98q0 -62 -24 -103t-80 -52v46q53 6 53 101h-53v106z" />
    <glyph glyph-name="quotedblbase" unicode="&#x201e;" 
d="M145 106h104v-98q0 -62 -24 -103t-80 -52v46q53 6 53 101h-53v106zM350 106h104v-98q0 -62 -24 -103t-80 -52v46q53 6 53 101h-53v106z" />
    <glyph glyph-name="guilsinglleft" unicode="&#x2039;" 
d="M378 108l-157 123v92l157 123v-88l-105 -81l105 -81v-88z" />
    <glyph glyph-name="guilsinglright" unicode="&#x203a;" 
d="M221 196l105 81l-105 81v88l157 -123v-92l-157 -123v88z" />
    <glyph glyph-name="guillemotleft" unicode="&#xab;" 
d="M266 108l-157 123v92l157 123v-88l-105 -81l105 -81v-88zM491 108l-157 123v92l157 123v-88l-105 -81l105 -81v-88z" />
    <glyph glyph-name="guillemotright" unicode="&#xbb;" 
d="M109 196l105 81l-105 81v88l157 -123v-92l-157 -123v88zM334 196l105 81l-105 81v88l157 -123v-92l-157 -123v88z" />
    <glyph glyph-name="endash" unicode="&#x2013;" 
d="M550 240h-500v73h500v-73z" />
    <glyph glyph-name="emdash" unicode="&#x2014;" 
d="M600 240h-600v73h600v-73z" />
    <glyph glyph-name="bullet" unicode="&#x2022;" 
d="M457 359q0 -33 -12.5 -62t-34 -50t-50.5 -33t-62 -12t-61.5 12t-49.5 33.5t-33 50t-12 61.5t12 62t33 50t49.5 33.5t61.5 12.5t62 -12t50.5 -33.5t34 -50.5t12.5 -62z" />
    <glyph glyph-name="periodcentered" unicode="&#xb7;" 
d="M352 220h-104v106h104v-106z" />
    <glyph glyph-name="dagger" unicode="&#x2020;" 
d="M347 -159h-94v590h-189v76h189v211h94v-211h188v-76h-188v-590z" />
    <glyph glyph-name="daggerdbl" unicode="&#x2021;" 
d="M347 119h188v-76h-188v-202h-94v202h-189v76h189v320h-189v76h189v203h94v-203h188v-76h-188v-320z" />
    <glyph glyph-name="section" unicode="&#xa7;" 
d="M215 428q-67 -34 -67 -97q0 -32 13.5 -52.5t31.5 -32.5l189 -122q69 39 69 101q0 27 -15.5 51.5t-46.5 44.5zM397 554q0 49 -23 78t-76 29q-38 0 -65 -20.5t-27 -60.5q0 -29 19.5 -49.5t53.5 -40.5l146 -86q29 -17 49.5 -33.5t34 -34.5t19.5 -40.5t6 -51.5
q0 -100 -103 -160q52 -49 52 -114q0 -36 -15.5 -65.5t-41 -51t-58 -33t-66.5 -11.5q-94 0 -145.5 48.5t-51.5 139.5h88q0 -57 26 -84.5t73 -27.5q48 0 75.5 21.5t27.5 61.5q0 26 -14.5 43.5t-40.5 35.5l-210 140q-35 23 -50 55.5t-15 66.5q0 109 100 158q-47 45 -47 100
q0 38 13.5 69t37.5 53.5t57 35t72 12.5q90 0 137 -47.5t47 -135.5h-85z" />
    <glyph glyph-name="paragraph" unicode="&#xb6;" 
d="M274 344h-6q-41 0 -79 12.5t-66.5 36.5t-45.5 58t-17 77q0 91 56 140.5t175 49.5h218v-891h-73v831h-89v-831h-73v517z" />
    <glyph glyph-name="brokenbar" unicode="&#xa6;" 
d="M263 275h73v-294h-73v294zM263 737h73v-277h-73v277z" />
    <glyph glyph-name="copyright" unicode="&#xa9;" 
d="M450 289q-5 -35 -17.5 -64.5t-30.5 -51t-40.5 -33.5t-47.5 -12q-39 0 -71 18t-54.5 49t-35 73.5t-12.5 92.5q0 49 12 91.5t34 73.5t53 48.5t70 17.5q52 0 90.5 -41t48.5 -116h-67q-6 40 -25.5 65.5t-45.5 25.5q-24 0 -41.5 -12.5t-29 -35t-17.5 -52.5t-6 -64
q0 -33 6.5 -63.5t19 -54t30.5 -37t41 -13.5q26 0 44.5 25t23.5 70h68zM76 360q0 -84 16 -143.5t45.5 -98t71 -56.5t92.5 -18q48 0 89 18t71 56.5t46.5 98t16.5 143.5t-16.5 143.5t-46.5 97.5t-71 55.5t-89 17.5q-50 0 -91 -17.5t-71 -55.5t-46.5 -97.5t-16.5 -143.5z
M301 -19q-142 0 -221.5 95.5t-79.5 283.5q0 189 79.5 283t221.5 94q68 0 123.5 -23.5t94.5 -71t60 -118t21 -164.5q0 -92 -21 -163t-60 -119t-94 -72.5t-124 -24.5z" />
    <glyph glyph-name="registered" unicode="&#xae;" 
d="M287 386q42 0 63 15.5t21 55.5q0 29 -19 46.5t-66 17.5h-40v-135h41zM246 141h-66v436h120q140 0 140 -124q0 -103 -100 -120l111 -192h-74l-105 189h-26v-189zM76 360q0 -84 16 -143.5t45.5 -98t71 -56.5t92.5 -18q48 0 89 18t71 56.5t46.5 98t16.5 143.5t-16.5 143.5
t-46.5 97.5t-71 55.5t-89 17.5q-50 0 -91 -17.5t-71 -55.5t-46.5 -97.5t-16.5 -143.5zM301 -19q-142 0 -221.5 95.5t-79.5 283.5q0 189 79.5 283t221.5 94q68 0 123.5 -23.5t94.5 -71t60 -118t21 -164.5q0 -92 -21 -163t-60 -119t-94 -72.5t-124 -24.5z" />
    <glyph glyph-name="trademark" unicode="&#x2122;" 
d="M228 658h-72v-352h-69v352h-72v60h213v-60zM417 414l63 304h105v-412h-69v335h-1l-75 -335h-47l-74 335h-2v-335h-68v412h105z" />
    <glyph glyph-name="currency" unicode="&#xa4;" 
d="M128 351q0 -35 13.5 -67.5t37 -57t55 -39.5t66.5 -15q36 0 67 15t54.5 40t37 57t13.5 67t-13.5 67t-37 56.5t-55 39t-66.5 14.5q-34 0 -65 -14.5t-55 -39t-38 -56.5t-14 -67zM550 555l-55 -54q50 -67 50 -150q0 -81 -50 -151l54 -56l-45 -45l-55 58q-67 -55 -149 -55
t-149 55l-55 -58l-45 45l54 56q-50 70 -50 151q0 83 50 150l-55 54l48 48l57 -56q61 51 145 51q82 0 145 -51l57 56z" />
    <glyph glyph-name="Euro" unicode="&#x20ac;" 
d="M443 394h-243q-2 -19 -2 -37t1 -37h230l-10 -53h-216q10 -97 47 -149.5t99 -52.5q48 0 79 32.5t42 89.5h84q-5 -44 -22 -81t-44.5 -63.5t-65 -41.5t-83.5 -15q-55 0 -96 24t-69.5 64t-44.5 90t-21 103h-62l10 53h49v40t2 34h-61l10 53h57q7 52 24.5 100.5t47 86.5t72 61
t98.5 23q44 0 79 -14t60 -39.5t39.5 -61t18.5 -77.5h-85q-18 112 -124 112q-54 0 -89 -47t-49 -144h248z" />
    <glyph glyph-name="perthousand" unicode="&#x2030;" 
d="M269 232q-24 0 -39 -25t-15 -74q0 -50 15 -74.5t39 -24.5q23 0 38.5 24.5t15.5 74.5q0 49 -15.5 74t-38.5 25zM494 232q-24 0 -39 -25t-15 -74q0 -50 15 -74.5t39 -24.5q23 0 38.5 24.5t15.5 74.5q0 49 -15.5 74t-38.5 25zM375 133q0 -77 -30.5 -111.5t-75.5 -34.5
t-75.5 34.5t-30.5 111.5q0 78 30.5 112t75.5 34q22 0 41.5 -8t33.5 -26t22.5 -45.5t8.5 -66.5zM600 133q0 -77 -30.5 -111.5t-75.5 -34.5t-75.5 34.5t-30.5 111.5q0 78 30.5 112t75.5 34q22 0 41.5 -8t33.5 -26t22.5 -45.5t8.5 -66.5zM106 656q-24 0 -39 -25t-15 -74
q0 -50 15 -74.5t39 -24.5q23 0 38.5 24.5t15.5 74.5q0 49 -15.5 74t-38.5 25zM212 557q0 -77 -30.5 -111.5t-75.5 -34.5t-75.5 34.5t-30.5 111.5q0 78 30.5 112t75.5 34q22 0 41.5 -8t33.5 -26t22.5 -45.5t8.5 -66.5zM374 709l-316 -729h-58l316 729h58z" />
    <glyph glyph-name="plusminus" unicode="&#xb1;" 
d="M47 73h506v-73h-506v73zM264 506h73v-161h216v-73h-216v-161h-73v161h-217v73h217v161z" />
    <glyph glyph-name="logicalnot" unicode="&#xac;" 
d="M553 0h-73v216h-433v73h506v-289z" />
    <glyph glyph-name="uni00B5" unicode="&#xb5;" 
d="M54 523h88v-316q0 -67 33.5 -104t92.5 -37q62 0 93 37t31 103v317h88v-398q0 -35 9.5 -46t29.5 -11h13.5t13.5 2v-73q-13 -3 -26.5 -5t-27.5 -2q-80 0 -94 71q-52 -76 -135 -76q-17 0 -35 4.5t-34.5 13t-29.5 21t-20 28.5l-2 -1v-258h-88v730z" />
    <glyph glyph-name="degree" unicode="&#xb0;" 
d="M300 660q-20 0 -37.5 -8.5t-31 -23t-21.5 -33t-8 -38.5t8 -38.5t21.5 -33t31 -23t37.5 -8.5q19 0 37 8.5t31.5 23t21.5 33t8 38.5t-8 38.5t-21.5 33t-31.5 23t-37 8.5zM446 557q0 -31 -11 -57.5t-30.5 -46t-46.5 -31t-58 -11.5t-57.5 11.5t-46 31t-31 46t-11.5 57.5
t11.5 58t31 46.5t46 30.5t57.5 11t58 -11t46.5 -30.5t30.5 -46.5t11 -58z" />
    <glyph glyph-name="afii61352" unicode="&#x2116;" 
d="M352 96h227v-71h-227v71zM424 374q0 -17 2 -40t7 -43t13 -34t20 -14q13 0 21.5 14t12.5 34t5.5 43t1.5 40t-2 39.5t-6.5 43t-12.5 34.5t-20 14q-14 0 -22 -14t-12.5 -34.5t-6 -43t-1.5 -39.5zM343 375q0 37 6.5 73t21 64.5t38 46t57.5 17.5q32 0 55 -17.5t37.5 -46
t21.5 -64.5t7 -73t-7 -73.5t-21.5 -65t-37.5 -46.5t-55 -18q-34 0 -57.5 18t-38 46.5t-21 65t-6.5 73.5zM235 718h75v-718h-95l-107 488h-2v-488h-81v718h95l112 -508h3v508z" />
    <glyph glyph-name="afii10023" unicode="&#x401;" 
d="M264 806h-90v102h90v-102zM426 806h-90v102h90v-102zM95 718h433v-86h-336v-220h303v-86h-303v-240h343v-86h-440v718z" />
    <glyph glyph-name="afii10051" unicode="&#x402;" 
d="M153 632h-153v86h468v-86h-218v-215h128q100 0 152 -52t52 -151q0 -51 -16 -90.5t-44 -67t-65 -42t-79 -14.5h-51v85h46q55 0 83.5 33.5t28.5 95.5q0 57 -31.5 88t-96.5 31h-107v-333h-97v632z" />
    <glyph glyph-name="afii10052" unicode="&#x403;" 
d="M318 783h-66l71 141h105zM100 718h420v-88h-324v-630h-96v718z" />
    <glyph glyph-name="afii10053" unicode="&#x404;" 
d="M470 506q-11 75 -45.5 111.5t-97.5 36.5q-40 0 -71.5 -17t-54 -48t-35 -74.5t-15.5 -97.5h228v-83h-230q4 -265 181 -265q56 0 93.5 43.5t52.5 142.5h93q-20 -139 -84 -204.5t-170 -65.5q-69 0 -119 28.5t-82 79t-47 120t-15 152.5q0 82 17 150t51.5 117.5t86 77
t120.5 27.5q45 0 85 -14t71 -43t51.5 -72.5t27.5 -101.5h-92z" />
    <glyph glyph-name="afii10054" unicode="&#x405;" 
d="M445 508q-2 37 -14 64.5t-32 45.5t-46.5 27t-55.5 9q-65 0 -99.5 -32.5t-34.5 -93.5q0 -33 18.5 -54t66.5 -37l145 -47q80 -26 121.5 -72.5t41.5 -119.5q0 -59 -21 -100t-56 -67t-80 -38t-94 -12q-54 0 -102 14t-83.5 44.5t-55.5 78t-19 114.5h91q0 -44 13 -75.5
t35.5 -52t53 -30.5t66.5 -10q75 0 116.5 31t41.5 90q0 28 -8 48t-22.5 34.5t-36 24.5t-48.5 18l-125 36q-78 23 -115.5 64t-37.5 105q0 53 16.5 94.5t45.5 70t68.5 43t86.5 14.5q118 0 181.5 -54.5t68.5 -174.5h-91z" />
    <glyph glyph-name="afii10055" unicode="&#x406;" 
d="M118 86h133v546h-133v86h363v-86h-133v-546h133v-86h-363v86z" />
    <glyph glyph-name="afii10056" unicode="&#x407;" 
d="M264 806h-90v102h90v-102zM426 806h-90v102h90v-102zM118 86h133v546h-133v86h363v-86h-133v-546h133v-86h-363v86z" />
    <glyph glyph-name="afii10057" unicode="&#x408;" 
d="M64 231h91v-49q0 -59 27 -88.5t91 -29.5q125 0 125 124v444h-286v86h383v-524q0 -101 -56 -157t-161 -56q-47 0 -86 11.5t-67.5 34t-44.5 56t-16 78.5v70z" />
    <glyph glyph-name="afii10058" unicode="&#x409;" 
d="M373 85h58q34 0 53 32.5t19 97.5q0 58 -23 89t-65 31h-42v-250zM276 634h-58q-3 -61 -7 -128t-9.5 -131t-13.5 -121t-18 -97q-21 -85 -61.5 -124.5t-97.5 -39.5l-15 1v93h7q32 0 57 31.5t36 97.5q6 31 10.5 85t8.5 121t8 143t7 153h243v-298h63q76 0 120 -52.5t44 -152.5
q0 -51 -13.5 -91t-36 -67.5t-52.5 -42t-62 -14.5h-160v634z" />
    <glyph glyph-name="afii10059" unicode="&#x40a;" 
d="M358 85h53q35 0 53.5 33.5t18.5 96.5q0 120 -88 120h-37v-250zM260 335h-124v-335h-96v718h96v-297h124v297h98v-298h58q80 0 122 -52.5t42 -152.5q0 -51 -13 -90.5t-35.5 -67.5t-52 -42.5t-63.5 -14.5h-156v335z" />
    <glyph glyph-name="afii10060" unicode="&#x40b;" 
d="M250 406q33 7 65.5 10.5t65.5 3.5q101 0 150 -49.5t49 -163.5v-207h-97v187q0 41 -6.5 69t-20.5 45.5t-36.5 25t-55.5 7.5q-44 0 -114 -12v-322h-97v632h-153v86h468v-86h-218v-226z" />
    <glyph glyph-name="afii10061" unicode="&#x40c;" 
d="M298 783h-66l71 141h105zM139 718v-303h95q28 0 50 3.5t38.5 13t26 27t12.5 44.5l11 122q5 57 30.5 80.5t86.5 23.5q12 0 28.5 -1.5t33.5 -3.5v-84q-14 2 -24 3t-17 1q-26 0 -37.5 -12.5t-15.5 -46.5l-10 -84q-12 -96 -96 -124v-2q32 -8 52.5 -24t32.5 -37t18 -45t8 -47
l9 -92q1 -16 3 -26.5t6.5 -17t13.5 -9.5t26 -3q9 0 18 1t19 3v-81q-12 -2 -27 -3.5t-34 -1.5q-62 0 -88.5 24.5t-30.5 81.5l-12 142q-4 48 -35 70.5t-91 22.5h-100v-333h-96v718h96z" />
    <glyph glyph-name="afii10062" unicode="&#x40e;" 
d="M198 921q16 -79 102 -79t102 79h49q-8 -136 -151 -136t-151 136h49zM127 718l190 -434l180 434h104l-264 -602q-15 -35 -32 -58t-38.5 -37t-49 -19.5t-63.5 -5.5q-17 0 -33 1t-33 3v83q15 -2 30 -3.5t30 -1.5q47 0 73.5 19t45.5 67l6 12l-253 542h107z" />
    <glyph glyph-name="afii10145" unicode="&#x40f;" 
d="M48 0v718h97v-632h308v632h98v-718h-206v-195h-92v195h-205z" />
    <glyph glyph-name="afii10017" unicode="&#x410;" 
d="M388 295l-86 316h-2l-89 -316h177zM250 718h110l220 -718h-106l-62 209h-227l-65 -209h-100z" />
    <glyph glyph-name="afii10018" unicode="&#x411;" 
d="M162 85h162q56 0 84 36t28 98q0 59 -31 91t-97 32h-146v-257zM66 718h419v-86h-323v-205h168q99 0 151 -54t52 -154q0 -52 -16 -92.5t-43.5 -68.5t-64.5 -43t-80 -15h-263v718z" />
    <glyph glyph-name="afii10019" unicode="&#x412;" 
d="M327 83q63 0 97.5 35.5t34.5 95.5q0 61 -39 91t-109 30h-131v-252h147zM296 414q64 0 96.5 28t32.5 88q0 51 -31 78t-97 27h-117v-221h116zM84 718h255q36 0 69.5 -12t58.5 -35.5t40 -57t15 -76.5q0 -48 -26 -87.5t-70 -62.5q63 -25 96.5 -67t33.5 -108
q0 -51 -18.5 -90.5t-50 -66.5t-72 -41t-83.5 -14h-248v718z" />
    <glyph glyph-name="afii10020" unicode="&#x413;" 
d="M100 718h420v-88h-324v-630h-96v718z" />
    <glyph glyph-name="afii10021" unicode="&#x414;" 
d="M278 632q-21 -348 -107 -546h241v546h-134zM7 86h53q26 56 44.5 117t34.5 127q16 68 27.5 164t20.5 224h323v-632h83v-281h-93v195h-400v-195h-93v281z" />
    <glyph glyph-name="afii10022" unicode="&#x415;" 
d="M95 718h433v-86h-336v-220h303v-86h-303v-240h343v-86h-440v718z" />
    <glyph glyph-name="afii10024" unicode="&#x416;" 
d="M259 335h-24q-23 0 -32 -23.5t-13 -71.5l-12 -142q-5 -58 -33 -82t-88 -24q-35 0 -60 5v81q11 -2 20 -3t17 -1q28 0 36 12t12 44l11 92q3 24 8 47.5t16.5 44.5t31.5 37t53 24v2q-83 26 -95 124l-10 84q-4 35 -16.5 47t-35.5 12q-6 0 -13 -1q-6 -1 -13.5 -1.5t-15.5 -1.5
v84q17 2 31.5 3.5t30.5 1.5q57 0 84.5 -23.5t32.5 -80.5l12 -122q3 -27 6.5 -44.5t9 -27.5t13 -13.5t18.5 -3.5h18v304h82v-304h20q10 0 18 3.5t13.5 13.5t9.5 27.5t6 44.5l10 122q5 57 31 80.5t88 23.5q12 0 27 -1.5l35 -3.5v-84q-14 2 -24.5 3t-17.5 1q-27 0 -39 -12.5
t-15 -46.5l-8 -84q-5 -49 -30.5 -79.5t-67.5 -44.5v-2q33 -8 53.5 -24t33 -37t18 -44.5t7.5 -47.5l9 -92q1 -16 3 -26.5t6.5 -17t13.5 -9.5t25 -3q8 0 17.5 1t19.5 3v-81q-12 -2 -27 -3.5t-34 -1.5q-62 0 -88 24.5t-30 81.5l-12 142q-4 48 -13.5 71.5t-31.5 23.5h-26v-335
h-82v335z" />
    <glyph glyph-name="afii10025" unicode="&#x417;" 
d="M222 416h74q66 0 101.5 22t35.5 88q0 61 -35.5 93t-103.5 32q-72 0 -110 -33.5t-40 -92.5h-93q4 55 23.5 95t51.5 66t75.5 38.5t95.5 12.5q44 0 86 -11.5t74.5 -36t52.5 -61.5t20 -88q0 -55 -24 -93t-69 -60v-1q60 -19 91.5 -63t31.5 -113q0 -60 -22.5 -102.5t-60 -69.5
t-86.5 -40t-101 -13q-123 0 -186 57t-65 165h94q8 -70 48.5 -103t115.5 -33q32 0 61.5 7.5t52.5 24.5t37 44t14 66q0 36 -10.5 59.5t-30.5 37t-48.5 19t-65.5 5.5h-85v82z" />
    <glyph glyph-name="afii10026" unicode="&#x418;" 
d="M453 718h97v-718h-97v507h-4l-303 -434v-73h-96v718h96v-504h4l303 434v70z" />
    <glyph glyph-name="afii10027" unicode="&#x419;" 
d="M198 921q16 -79 102 -79t102 79h49q-8 -136 -151 -136t-151 136h49zM453 718h97v-718h-97v507h-4l-303 -434v-73h-96v718h96v-504h4l303 434v70z" />
    <glyph glyph-name="afii10028" unicode="&#x41a;" 
d="M139 718v-303h95q28 0 50 3.5t38.5 13t26 27t12.5 44.5l11 122q5 57 30.5 80.5t86.5 23.5q12 0 28.5 -1.5t33.5 -3.5v-84q-14 2 -24 3t-17 1q-26 0 -37.5 -12.5t-15.5 -46.5l-10 -84q-12 -96 -96 -124v-2q32 -8 52.5 -24t32.5 -37t18 -45t8 -47l9 -92q1 -16 3 -26.5
t6.5 -17t13.5 -9.5t26 -3q9 0 18 1t19 3v-81q-12 -2 -27 -3.5t-34 -1.5q-62 0 -88.5 24.5t-30.5 81.5l-12 142q-4 48 -35 70.5t-91 22.5h-100v-333h-96v718h96z" />
    <glyph glyph-name="afii10029" unicode="&#x41b;" 
d="M415 0v634h-135q-6 -149 -22.5 -265.5t-45.5 -201.5q-58 -174 -188 -174h-7t-9 1v93h8q79 0 122 139q20 66 33 188t21 304h320v-718h-97z" />
    <glyph glyph-name="afii10030" unicode="&#x41c;" 
d="M36 718h149l114 -567h3l113 567h149v-718h-94v424v23t0.5 41.5t1 44t0.5 30.5h-3l-121 -563h-96l-121 562h-3q0 -9 0.5 -28t1 -41t0.5 -41v-28v-424h-94v718z" />
    <glyph glyph-name="afii10031" unicode="&#x41d;" 
d="M86 718h96v-297h235v297h97v-718h-97v335h-235v-335h-96v718z" />
    <glyph glyph-name="afii10032" unicode="&#x41e;" 
d="M460 359q0 58 -10.5 111t-31 93.5t-50 64t-68.5 23.5t-69 -24t-50.5 -64t-30.5 -93t-10 -111q0 -59 10 -112t30.5 -93t50.5 -63.5t69 -23.5q38 0 67.5 23.5t50 63t31.5 92.5t11 113zM560 359q0 -79 -18 -148t-51.5 -120t-82 -80.5t-108.5 -29.5q-62 0 -110.5 29t-81.5 80
t-50.5 120t-17.5 149q0 79 17.5 148t50.5 120t81.5 80.5t110.5 29.5q61 0 109.5 -29.5t82 -80.5t51 -120t17.5 -148z" />
    <glyph glyph-name="afii10033" unicode="&#x41f;" 
d="M60 718h479v-718h-98v632h-284v-632h-97v718z" />
    <glyph glyph-name="afii10034" unicode="&#x420;" 
d="M189 386h123q146 0 146 129q0 59 -35 89.5t-107 30.5h-127v-249zM189 0h-97v718h253q46 0 85 -14t67.5 -40.5t44.5 -64t16 -83.5q0 -48 -15 -87t-43 -67t-67 -43.5t-88 -15.5h-156v-303z" />
    <glyph glyph-name="afii10035" unicode="&#x421;" 
d="M315 -19q-67 0 -116.5 29.5t-82 81.5t-48.5 121.5t-16 149.5t17.5 148.5t52.5 118.5t86 78.5t119 28.5q45 0 85 -15.5t70.5 -45t51 -73.5t28.5 -101h-94q-11 74 -47.5 111.5t-93.5 37.5q-45 0 -77.5 -23t-54.5 -62t-32.5 -91t-10.5 -109q0 -299 178 -299q30 0 54 15
t42.5 41t30.5 62.5t18 78.5h94q-7 -66 -28.5 -118t-54.5 -89t-76.5 -56.5t-94.5 -19.5z" />
    <glyph glyph-name="afii10036" unicode="&#x422;" 
d="M250 632h-212v86h523v-86h-214v-632h-97v632z" />
    <glyph glyph-name="afii10037" unicode="&#x423;" 
d="M127 718l190 -434l180 434h104l-264 -602q-15 -35 -32 -58t-38.5 -37t-49 -19.5t-63.5 -5.5q-17 0 -33 1t-33 3v83q15 -2 30 -3.5t30 -1.5q47 0 73.5 19t45.5 67l6 12l-253 542h107z" />
    <glyph glyph-name="afii10038" unicode="&#x424;" 
d="M256 551h-3q-73 0 -100 -45t-27 -139q0 -90 28 -136.5t99 -46.5h3v367zM344 184h4q71 0 99 46t28 137q0 94 -27.5 139t-99.5 45h-4v-367zM345 629h19q104 0 154 -64t50 -198q0 -135 -50.5 -198t-153.5 -63h-19v-116h-90v116h-19q-105 0 -154 63t-49 198q0 134 49 198
t154 64h19v108h90v-108z" />
    <glyph glyph-name="afii10039" unicode="&#x425;" 
d="M575 0h-120l-153 295l-159 -295h-117l217 368l-201 350h122l142 -275l142 275h116l-201 -350z" />
    <glyph glyph-name="afii10040" unicode="&#x426;" 
d="M488 86h83v-282h-93v196h-408v718h97v-632h223v632h98v-632z" />
    <glyph glyph-name="afii10041" unicode="&#x427;" 
d="M431 304q-71 -17 -141 -17q-54 0 -95 11t-68.5 36.5t-41.5 68t-14 104.5v210h98v-198q0 -41 6.5 -69t21.5 -45t39.5 -24.5t60.5 -7.5q75 0 134 13v331h97v-717h-97v304z" />
    <glyph glyph-name="afii10042" unicode="&#x428;" 
d="M478 86v632h85v-718h-526v718h85v-632h135v632h86v-632h135z" />
    <glyph glyph-name="afii10043" unicode="&#x429;" 
d="M450 86v632h86v-632h63v-281h-83v195h-494v718h85v-632h129v632h85v-632h129z" />
    <glyph glyph-name="afii10044" unicode="&#x42a;" 
d="M231 85h122q56 0 84 36t28 98q0 123 -128 123h-106v-257zM134 632h-115v86h212v-291h128q99 0 151 -54t52 -154q0 -52 -16 -92.5t-43.5 -68.5t-65 -43t-79.5 -15h-224v632z" />
    <glyph glyph-name="afii10045" unicode="&#x42b;" 
d="M151 85h42q56 0 84 36t28 98q0 123 -128 123h-26v-257zM54 718h97v-291h48q99 0 151 -54t52 -154q0 -52 -16 -92.5t-43.5 -68.5t-65 -43t-79.5 -15h-144v718zM549 0h-97v718h97v-718z" />
    <glyph glyph-name="afii10046" unicode="&#x42c;" 
d="M181 85h162q56 0 84 36t28 98q0 123 -128 123h-146v-257zM84 718h97v-291h168q99 0 151 -54t52 -154q0 -52 -16 -92.5t-43.5 -68.5t-65 -43t-79.5 -15h-264v718z" />
    <glyph glyph-name="afii10047" unicode="&#x42d;" 
d="M38 506q7 58 27.5 101.5t51.5 72.5t71 43t85 14q69 0 120.5 -27.5t86 -77t51.5 -117.5t17 -150q0 -83 -15 -152.5t-47 -120t-82 -79t-119 -28.5q-106 0 -170 65.5t-84 204.5h93q15 -99 52.5 -142.5t93.5 -43.5q177 0 181 265h-230v83h228q-3 54 -15.5 97.5t-35 74.5
t-54 48t-71.5 17q-63 0 -97.5 -36.5t-45.5 -111.5h-92z" />
    <glyph glyph-name="afii10048" unicode="&#x42e;" 
d="M381 652q-38 0 -60 -24.5t-34 -65t-15.5 -93.5t-3.5 -110t3.5 -110t15.5 -93.5t34 -65t60 -24.5q35 0 57 24.5t34 65.5t16.5 93.5t4.5 109.5q0 55 -4.5 107.5t-16.5 94t-34 66.5t-57 25zM104 409h82q3 70 14.5 130t34.5 104t59 69t88 25q56 0 94 -30.5t61.5 -82.5
t33.5 -120.5t10 -144.5t-10.5 -144.5t-34 -120.5t-61.5 -82.5t-93 -30.5q-54 0 -91 26t-60 72t-33.5 109t-12.5 137h-81v-325h-85v718h85v-309z" />
    <glyph glyph-name="afii10049" unicode="&#x42f;" 
d="M422 635h-151q-54 0 -82 -29t-28 -91q0 -60 30 -92t96 -32h135v244zM422 308h-145q-36 0 -57.5 -11.5t-33 -30t-14.5 -41.5t-3 -45q0 -17 -0.5 -41.5t-2.5 -50.5t-5.5 -49.5t-8.5 -38.5h-120v16q12 6 19 12t10.5 13.5t5 18t2.5 24.5l6 134q2 56 20 85.5t66 49.5
q-50 27 -74.5 68t-24.5 104q0 94 54.5 143.5t160.5 49.5h242v-718h-97v308z" />
    <glyph glyph-name="afii10065" unicode="&#x430;" 
d="M420 267q-9 -9 -39 -17q-14 -3 -40.5 -7t-65.5 -9q-58 -8 -85 -29t-27 -56q0 -43 22.5 -67t73.5 -24q26 0 54.5 8.5t52 24t39 38.5t15.5 52v86zM98 364q6 174 216 174q36 0 70.5 -8t62.5 -25.5t45 -45.5t17 -67v-301q0 -31 28 -31q5 0 12.5 1t16.5 3v-64
q-12 -5 -24.5 -7.5t-25.5 -2.5q-45 0 -66.5 19t-23.5 61q-75 -85 -189 -85q-35 0 -65 10.5t-52 30t-34.5 47.5t-12.5 63q0 69 39 111.5t114 51.5l155 19q42 4 42 62q0 85 -123 85q-56 0 -85 -24t-35 -77h-82z" />
    <glyph glyph-name="afii10066" unicode="&#x431;" 
d="M454 246q0 36 -9.5 68.5t-28.5 57t-47.5 39t-66.5 14.5t-66.5 -14.5t-47.5 -39t-28.5 -57t-9.5 -68.5q0 -37 9 -70t28 -58.5t47.5 -40.5t67.5 -15t67.5 15t47.5 40.5t28 59t9 69.5zM511 731q1 -3 1 -7v-9q0 -49 -29 -69q-7 -5 -18.5 -9.5t-34 -10.5t-60 -14t-96.5 -20
q-42 -8 -68.5 -25t-42.5 -42.5t-24.5 -59t-13.5 -74.5l2 -1q30 56 79 83.5t109 27.5q52 0 94.5 -20.5t72.5 -55.5t46 -81t16 -97q0 -53 -17 -100.5t-48.5 -83t-76.5 -56.5t-100 -21q-121 0 -183.5 84t-62.5 245q0 66 8 125.5t30.5 106.5t62.5 80t104 46q48 10 78.5 16.5
t47.5 10t24.5 5.5t10.5 3q12 6 14 23h75z" />
    <glyph glyph-name="afii10067" unicode="&#x432;" 
d="M162 70h161q57 0 84 23.5t27 62.5q0 80 -122 80h-150v-166zM162 301h143q61 0 88 19.5t27 59.5q0 72 -109 72h-149v-151zM75 523h269q33 0 63 -8t53 -24t36.5 -40.5t13.5 -58.5q0 -77 -81 -117q96 -26 96 -120q0 -39 -16 -68t-43 -48.5t-62 -29t-72 -9.5h-257v523z" />
    <glyph glyph-name="afii10068" unicode="&#x433;" 
d="M146 523h358v-79h-270v-444h-88v523z" />
    <glyph glyph-name="afii10069" unicode="&#x434;" 
d="M250 448q-2 -213 -94 -371h244v371h-150zM28 77h33q52 65 80 159q29 95 29 277v10h318v-446h74v-253h-84v176h-366v-176h-84v253z" />
    <glyph glyph-name="afii10070" unicode="&#x435;" 
d="M466 303q-8 75 -44 115.5t-112 40.5q-35 0 -63.5 -12.5t-48.5 -33.5t-31.5 -49.5t-11.5 -60.5h311zM550 164q-9 -41 -30 -74.5t-52.5 -57t-71.5 -36t-86 -12.5q-60 0 -106.5 20t-78 55t-48 83.5t-16.5 104.5q0 63 15.5 116t48 92t81.5 61t116 22q65 0 110 -25t72.5 -67
t40 -97.5t12.5 -115.5h-402q0 -82 40.5 -127t121.5 -45q24 0 48.5 7.5t45 21.5t34.5 32.5t17 41.5h88z" />
    <glyph glyph-name="afii10072" unicode="&#x436;" 
d="M258 235q-20 0 -32 -4.5t-19.5 -13.5t-10.5 -21.5t-5 -28.5l-11 -96q-5 -48 -28.5 -63.5t-70.5 -15.5q-20 0 -31.5 1.5t-20.5 3.5v72q7 -2 15 -2.5t15 -0.5q19 0 28.5 6t12.5 29l8 67q2 16 6 31.5t13.5 29t25 24t40.5 16.5v1q-36 11 -53.5 33.5t-22.5 56.5l-7 57
q-4 28 -15 34.5t-27 6.5q-6 0 -13.5 -0.5t-20.5 -2.5v73q20 4 55 4q40 0 66 -16t30 -58l8 -90q3 -36 15 -51t50 -15v221h83v-221q28 1 46 16t21 50l8 90q4 42 27.5 58t68.5 16q14 0 26 -1t28 -3v-73q-23 3 -34 3q-23 0 -31 -9t-11 -32l-7 -57q-5 -34 -24 -56.5t-51 -33.5v-1
q43 -12 61.5 -40.5t22.5 -60.5l8 -67q1 -11 2.5 -18t5.5 -11t12 -5t22 -1q7 0 13 0.5t16 2.5v-72q-25 -5 -51 -5q-25 0 -42.5 3t-29.5 12t-18.5 24.5t-9.5 39.5l-11 96q-4 32 -21.5 49.5t-46.5 18.5v-235h-83v235z" />
    <glyph glyph-name="afii10073" unicode="&#x437;" 
d="M217 304h102q53 0 75 17t22 56q0 40 -31 63t-90 23q-54 0 -84.5 -24t-35.5 -69h-84q3 44 20.5 76t45 52.5t65 30.5t81.5 10q36 0 72.5 -8.5t65 -26.5t46.5 -46t18 -67q0 -76 -74 -114v-1q48 -12 70.5 -43t22.5 -76t-19.5 -77.5t-51 -53.5t-72 -30.5t-83.5 -9.5
q-100 0 -157 41.5t-65 132.5h86q6 -51 39.5 -75t99.5 -24q63 0 97.5 24t34.5 66q0 43 -25.5 63t-84.5 20h-106v70z" />
    <glyph glyph-name="afii10074" unicode="&#x438;" 
d="M431 0v366h-3l-259 -319v-47h-88v522h88v-361h3l259 316v45h88v-522h-88z" />
    <glyph glyph-name="afii10075" unicode="&#x439;" 
d="M198 731q16 -79 102 -79t102 79h49q-8 -136 -151 -136t-151 136h49zM431 0v366h-3l-259 -319v-47h-88v522h88v-361h3l259 316v45h88v-522h-88z" />
    <glyph glyph-name="afii10076" unicode="&#x43a;" 
d="M186 523v-219h95q41 0 60.5 17t23.5 47l10 90q5 42 30 58t66 16q32 0 55 -4v-73q-20 3 -34 3q-21 0 -30 -9t-12 -32l-7 -57q-8 -68 -76 -90v-1q24 -6 39.5 -16.5t25.5 -24t14.5 -29t6.5 -31.5l8 -67q3 -23 12 -29t29 -6q14 0 29 3v-72q-20 -5 -51 -5q-48 0 -73 15t-29 64
l-10 96q-3 32 -24.5 48t-55.5 16h-102v-231h-88v523h88z" />
    <glyph glyph-name="afii10077" unicode="&#x43b;" 
d="M421 0v448h-157q-13 -261 -69 -362q-56 -99 -165 -90v83q86 -6 118 104t41 340h320v-523h-88z" />
    <glyph glyph-name="afii10078" unicode="&#x43c;" 
d="M41 523h132l128 -419h3l130 419h124v-523h-84v411h-3l-130 -411h-84l-129 411h-3v-411h-84v523z" />
    <glyph glyph-name="afii10079" unicode="&#x43d;" 
d="M513 0h-88v230h-250v-230h-88v523h88v-216h250v216h88v-523z" />
    <glyph glyph-name="afii10080" unicode="&#x43e;" 
d="M157 262q0 -38 8.5 -73.5t26.5 -64t47 -45.5t70 -17q40 0 69 17.5t48 46t27.5 64.5t8.5 72q0 37 -8.5 72.5t-27.5 63.5t-48 45.5t-69 17.5t-68.5 -17t-47 -44.5t-27.5 -63.5t-9 -74zM67 262q0 55 16 105t47 88t76 60.5t103 22.5t103.5 -22.5t76.5 -60.5t47 -88t16 -105
t-16 -105t-46.5 -88.5t-76 -61t-104.5 -22.5q-58 0 -103 22.5t-76 60.5t-47 88t-16 106z" />
    <glyph glyph-name="afii10081" unicode="&#x43f;" 
d="M93 523h413v-523h-88v446h-237v-446h-88v523z" />
    <glyph glyph-name="afii10082" unicode="&#x440;" 
d="M174 237q0 -36 9 -68t26.5 -56t44.5 -38t63 -14q40 0 67 17.5t43.5 46t23.5 65t7 73.5q0 103 -35.5 149.5t-107.5 46.5q-70 0 -105.5 -54.5t-35.5 -167.5zM90 523h83v-74h2q56 89 156 89q55 0 96 -21.5t68 -57.5t40.5 -83t13.5 -99q0 -57 -13 -109.5t-41 -93t-71.5 -65
t-104.5 -24.5q-91 0 -139 70h-2v-262h-88v730z" />
    <glyph glyph-name="afii10083" unicode="&#x441;" 
d="M448 347q-24 112 -134 112q-42 0 -71.5 -16.5t-48 -44.5t-26.5 -63.5t-8 -72.5q0 -102 39 -151.5t114 -49.5q27 0 49.5 10t40 27t29 39.5t16.5 47.5h85q-15 -97 -73 -148.5t-149 -51.5q-59 0 -104.5 20.5t-76.5 55.5t-47.5 83t-16.5 103q0 61 16 114t48 92.5t81.5 62
t115.5 22.5q45 0 81.5 -14t63.5 -39t42.5 -60t18.5 -78h-85z" />
    <glyph glyph-name="afii10084" unicode="&#x442;" 
d="M256 444h-181v79h450v-79h-181v-444h-88v444z" />
    <glyph glyph-name="afii10085" unicode="&#x443;" 
d="M462 523h96q-56 -147 -97.5 -253t-71 -181t-48.5 -122.5t-31.5 -75.5t-19.5 -41.5t-12 -20.5q-31 -43 -100 -43q-35 0 -59 8v80q25 -9 55 -9t47 21q7 10 18.5 34.5t25.5 64.5l-204 538h99l150 -426h2z" />
    <glyph glyph-name="afii10086" unicode="&#x444;" 
d="M252 450q-47 0 -73.5 -10.5t-40.5 -33t-17.5 -58t-3.5 -86.5t3.5 -87t17 -58.5t40.5 -33t74 -10.5h6v377h-6zM342 450v-377h6q47 0 74.5 10.5t41 33t17 58.5t3.5 87q0 54 -3.5 89t-17.5 56t-41 30.5t-74 12.5h-6zM343 525h12q61 0 102.5 -14.5t67 -44t37 -75t11.5 -108.5
v-43q0 -62 -11 -107.5t-36.5 -75.5t-67 -44.5t-102.5 -14.5h-13v-196h-86v196h-12q-62 0 -103.5 14.5t-66.5 44t-36 75t-11 108.5v43q0 63 11 108.5t36.5 75.5t67.5 44t103 14h11v183h86v-183z" />
    <glyph glyph-name="afii10087" unicode="&#x445;" 
d="M539 0h-113l-129 197l-126 -197h-111l183 269l-174 254h112l121 -184l122 184h107l-176 -254z" />
    <glyph glyph-name="afii10088" unicode="&#x446;" 
d="M471 77h75v-253h-84v176h-368v523h88v-446h201v446h88v-446z" />
    <glyph glyph-name="afii10089" unicode="&#x447;" 
d="M410 214q-32 -5 -65 -7.5t-65 -2.5q-93 0 -136 36.5t-43 119.5v163h88v-144q0 -59 26 -80.5t85 -21.5q63 0 110 9v237h88v-523h-88v214z" />
    <glyph glyph-name="afii10090" unicode="&#x448;" 
d="M258 523h85v-447h115v447h84v-523h-483v523h85v-447h114v447z" />
    <glyph glyph-name="afii10091" unicode="&#x449;" 
d="M258 523h85v-447h115v447h84v-447h42v-252h-84v176h-441v523h85v-447h114v447z" />
    <glyph glyph-name="afii10092" unicode="&#x44a;" 
d="M249 70h88q56 0 83.5 25.5t27.5 68.5q0 42 -29 65t-93 23h-77v-182zM161 446h-141v77h229v-201h97q94 0 143.5 -40.5t49.5 -115.5q0 -40 -15.5 -71t-41.5 -52t-61.5 -32t-74.5 -11h-185v446z" />
    <glyph glyph-name="afii10093" unicode="&#x44b;" 
d="M150 70h38q55 0 83 25.5t28 68.5t-29 65.5t-93 22.5h-27v-182zM62 523h88v-201h47q94 0 143.5 -40.5t49.5 -115.5q0 -40 -15.5 -71t-41.5 -52t-61.5 -32t-74.5 -11h-135v523zM538 0h-87v523h87v-523z" />
    <glyph glyph-name="afii10094" unicode="&#x44c;" 
d="M196 70h103q56 0 83.5 25.5t27.5 68.5q0 88 -123 88h-91v-182zM196 322h111q96 0 145 -40.5t49 -115.5q0 -41 -15.5 -72t-42 -52t-62 -31.5t-74.5 -10.5h-199v523h88v-201z" />
    <glyph glyph-name="afii10095" unicode="&#x44d;" 
d="M198 307h236q-15 155 -142 155q-113 0 -135 -103h-84q14 88 70.5 133.5t147.5 45.5q60 0 104 -20.5t73 -57t43.5 -86t14.5 -107.5q0 -62 -15 -113.5t-46 -89t-77.5 -58.5t-109.5 -21q-93 0 -146 49.5t-59 140.5h83q6 -56 40.5 -85.5t87.5 -29.5q74 0 110 46t41 129h-237
v72z" />
    <glyph glyph-name="afii10096" unicode="&#x44e;" 
d="M292 262q0 -37 5 -73t16.5 -64t30.5 -45.5t48 -17.5q28 0 47 17.5t31 46t17 64.5t5 72t-5 71.5t-17 64t-31 46.5t-47 18q-29 0 -48 -17.5t-30.5 -46t-16.5 -64t-5 -72.5zM392 -14q-45 0 -78.5 20t-57 54t-36 79.5t-13.5 97.5h-81v-237h-87v523h87v-212h83q3 48 16.5 89
t37 72t56 48.5t73.5 17.5q47 0 82.5 -23t59 -61t35.5 -88t12 -104t-12 -103.5t-35.5 -88t-59 -61.5t-82.5 -23z" />
    <glyph glyph-name="afii10097" unicode="&#x44f;" 
d="M439 452h-155q-86 0 -86 -83q0 -48 23.5 -68.5t70.5 -20.5h147v172zM526 523v-523h-87v210h-129q-32 0 -53.5 -14.5t-25.5 -45.5l-9 -79q-5 -47 -29 -63t-74 -16q-12 0 -23.5 1.5t-22.5 3.5v71q13 -3 26 -3q22 0 30.5 8t11.5 34l5 48q6 56 70 82q-108 30 -108 137
q0 73 47 111t131 38h240z" />
    <glyph glyph-name="afii10071" unicode="&#x451;" 
d="M264 616h-90v102h90v-102zM426 616h-90v102h90v-102zM466 303q-8 75 -44 115.5t-112 40.5q-35 0 -63.5 -12.5t-48.5 -33.5t-31.5 -49.5t-11.5 -60.5h311zM550 164q-9 -41 -30 -74.5t-52.5 -57t-71.5 -36t-86 -12.5q-60 0 -106.5 20t-78 55t-48 83.5t-16.5 104.5
q0 63 15.5 116t48 92t81.5 61t116 22q65 0 110 -25t72.5 -67t40 -97.5t12.5 -115.5h-402q0 -82 40.5 -127t121.5 -45q24 0 48.5 7.5t45 21.5t34.5 32.5t17 41.5h88z" />
    <glyph glyph-name="afii10099" unicode="&#x452;" 
d="M108 718h88v-75h184v-55h-184v-163h2q64 85 154 85q85 0 134 -45.5t49 -136.5v-337q0 -100 -52.5 -151t-150.5 -52v79q59 0 86.5 29.5t27.5 88.5v328q0 61 -22.5 89.5t-81.5 28.5q-38 0 -65.5 -13.5t-45.5 -37t-26.5 -55t-8.5 -68.5v-257h-88v588h-64v55h64v75z" />
    <glyph glyph-name="afii10100" unicode="&#x453;" 
d="M318 593h-66l71 141h105zM146 523h358v-79h-270v-444h-88v523z" />
    <glyph glyph-name="afii10101" unicode="&#x454;" 
d="M397 235h-233q6 -175 143 -175q54 0 91 30.5t44 84.5h84q-4 -43 -22 -78t-46.5 -60t-66.5 -38.5t-83 -13.5q-59 0 -103.5 20.5t-73.5 56.5t-43.5 85t-14.5 106q0 61 15.5 113t46.5 90t77.5 60t109.5 22q42 0 78 -12t63 -35t42.5 -56t17.5 -76h-83q-6 48 -37.5 75.5
t-85.5 27.5q-71 0 -107 -41t-44 -114h231v-72z" />
    <glyph glyph-name="afii10102" unicode="&#x455;" 
d="M413 374q-2 48 -33.5 68t-90.5 20q-18 0 -36.5 -3.5t-33.5 -11t-24.5 -20t-9.5 -29.5q0 -28 15 -44t40 -26t58.5 -16.5t69.5 -15.5q32 -9 59 -20t46.5 -27.5t30.5 -41t11 -59.5q0 -41 -16.5 -71.5t-45 -51t-66 -30.5t-79.5 -10q-221 0 -224 183h85q4 -107 138 -107
q56 0 88 19t32 54q0 27 -9.5 41.5t-32.5 25t-63 19.5t-101 24q-63 16 -92 49.5t-29 87.5q0 39 16 68.5t43.5 49t63.5 29.5t76 10q84 0 138.5 -41t60.5 -123h-85z" />
    <glyph glyph-name="afii10103" unicode="&#x456;" 
d="M344 523v-450h200v-73h-488v73h200v377h-160v73h248zM256 618v100h88v-100h-88z" />
    <glyph glyph-name="afii10104" unicode="&#x457;" 
d="M254 616h-90v102h90v-102zM416 616h-90v102h90v-102zM344 523v-450h200v-73h-488v73h200v377h-160v73h248z" />
    <glyph glyph-name="afii10105" unicode="&#x458;" 
d="M405 523v-600q0 -71 -43.5 -102t-130.5 -31q-41 0 -77 3v76h63q32 0 52 2.5t30.5 9.5t14 19.5t3.5 32.5v517h-160v73h248zM405 618h-88v100h88v-100z" />
    <glyph glyph-name="afii10106" unicode="&#x459;" 
d="M347 70h79q35 0 53 25.5t18 68.5q0 45 -21.5 66.5t-61.5 21.5h-67v-182zM260 447h-63q-5 -131 -21 -221.5t-38 -139.5q-21 -48 -54.5 -70t-74.5 -22h-8t-8 1v83h7q32 0 56 25t35 78q11 54 19.5 139.5t11.5 202.5h225v-201h87q75 0 114.5 -40.5t39.5 -115.5
q0 -40 -12.5 -71t-33.5 -52t-49 -32t-59 -11h-174v447z" />
    <glyph glyph-name="afii10107" unicode="&#x45a;" 
d="M345 70h79q35 0 53 25.5t18 68.5q0 88 -83 88h-67v-182zM345 322h87q75 0 114 -40.5t39 -115.5q0 -41 -12 -72t-33 -52t-49 -31.5t-59 -10.5h-175v252h-124v-252h-88v523h88v-201h124v201h88v-201z" />
    <glyph glyph-name="afii10108" unicode="&#x45b;" 
d="M196 425h2q59 85 144 85q79 0 126 -45.5t47 -136.5v-328h-89v313q0 61 -20.5 89.5t-73.5 28.5q-35 0 -61 -13.5t-42.5 -37t-24.5 -55t-8 -68.5v-257h-88v588h-64v55h64v75h88v-75h174v-55h-174v-163z" />
    <glyph glyph-name="afii10109" unicode="&#x45c;" 
d="M308 593h-66l71 141h105zM186 523v-219h95q41 0 60.5 17t23.5 47l10 90q5 42 30 58t66 16q32 0 55 -4v-73q-20 3 -34 3q-21 0 -30 -9t-12 -32l-7 -57q-8 -68 -76 -90v-1q24 -6 39.5 -16.5t25.5 -24t14.5 -29t6.5 -31.5l8 -67q3 -23 12 -29t29 -6q14 0 29 3v-72
q-20 -5 -51 -5q-48 0 -73 15t-29 64l-10 96q-3 32 -24.5 48t-55.5 16h-102v-231h-88v523h88z" />
    <glyph glyph-name="afii10110" unicode="&#x45e;" 
d="M198 731q16 -79 102 -79t102 79h49q-8 -136 -151 -136t-151 136h49zM462 523h96q-56 -147 -97.5 -253t-71 -181t-48.5 -122.5t-31.5 -75.5t-19.5 -41.5t-12 -20.5q-31 -43 -100 -43q-35 0 -59 8v80q25 -9 55 -9t47 21q7 10 18.5 34.5t25.5 64.5l-204 538h99l150 -426h2z
" />
    <glyph glyph-name="afii10193" unicode="&#x45f;" 
d="M504 0h-162v-166h-84v166h-162v523h88v-446h232v446h88v-523z" />
    <glyph glyph-name="afii10050" unicode="&#x490;" 
d="M97 718h339v137h86v-223h-329v-632h-96v718z" />
    <glyph glyph-name="afii10098" unicode="&#x491;" 
d="M136 523h251v117h77v-194h-240v-446h-88v523z" />
    <glyph glyph-name="uni000D" unicode="&#xd;" 
 />
    <glyph glyph-name="space" unicode=" " 
 />
    <glyph glyph-name="exclam" unicode="!" 
d="M251 102h97v-102h-97v102zM251 481v237h97v-237l-24 -310h-49z" />
    <glyph glyph-name="quotedbl" unicode="&#x22;" 
d="M192 718h73v-255h-73v255zM334 718h73v-255h-73v255z" />
    <glyph glyph-name="glyph224" horiz-adv-x="0" 
 />
    <glyph glyph-name="florin" unicode="&#x192;" horiz-adv-x="396" 
d="M33 423h106l25 173q8 58 37 89q27 29 70.5 38t103.5 1v-76q-61 5 -87.5 -8t-32.5 -56l-23 -161h118v-70h-128l-54 -385q-9 -63 -40 -94q-23 -23 -58.5 -29t-84.5 0v74q37 -3 60 6.5t29 49.5l55 378h-96v70z" />
  </font>
</defs>
</svg>
